<svg xmlns="http://www.w3.org/2000/svg" width="14" height="14" viewBox="0 0 14 14" fill="none">
  <path fill-rule="evenodd" clip-rule="evenodd" d="M7.00001 13.7774C10.682 13.7774 13.667 10.7924 13.667 7.11036C13.667 3.42836 10.682 0.443359 7.00001 0.443359C3.31801 0.443359 0.333008 3.42936 0.333008 7.11036C0.333008 10.7914 3.31801 13.7774 7.00001 13.7774ZM7.86601 4.32936C7.86601 3.96136 7.56701 3.66236 7.19901 3.66236C6.83101 3.66236 6.53201 3.96136 6.53201 4.32936V7.19536L4.85701 6.26236C4.53501 6.08236 4.12901 6.19836 3.95001 6.52036C3.77001 6.84236 3.88601 7.24836 4.20801 7.42736L6.87501 8.91136C7.08101 9.02636 7.33301 9.02336 7.53701 8.90436C7.74001 8.78436 7.86601 8.56536 7.86601 8.32936V4.32936Z" fill="#AAB4C6"/>
</svg>