<?xml version="1.0" encoding="UTF-8"?>
<svg version="1.1" xmlns="http://www.w3.org/2000/svg" width="200" height="200">
<path d="M0 0 C66 0 132 0 200 0 C200 66 200 132 200 200 C134 200 68 200 0 200 C0 134 0 68 0 0 Z " fill="#FCFCFC" transform="translate(0,0)"/>
<path d="M0 0 C1.39387939 0.00845947 1.39387939 0.00845947 2.81591797 0.01708984 C19.18165363 0.30440764 30.66281013 6.11290113 43.875 15.3125 C41.78628279 19.92826819 38.59132231 23.00110394 35.0625 26.5625 C34.44568359 27.2121875 33.82886719 27.861875 33.19335938 28.53125 C28.59334664 33.18503547 28.59334664 33.18503547 25.03515625 33.81640625 C22.36960581 33.19460515 21.06902822 31.95802117 18.875 30.3125 C15.91945606 29.16581355 12.90561179 28.23898537 9.875 27.3125 C8.39 26.8175 8.39 26.8175 6.875 26.3125 C-2.6269618 25.4180252 -10.93214408 26.5739483 -18.7890625 32.23046875 C-26.03501729 38.41470509 -33.07912567 45.52262977 -34.125 55.3125 C-34.9616656 67.40986159 -33.93422953 78.84557891 -25.94921875 88.5 C-17.81075199 96.58618539 -9.37625121 100.40853856 2 100.625 C12.17396027 100.35267772 20.71693358 97.3272868 28.125 90.125 C30.91411185 85.64249881 33.34695271 80.94725336 35.875 76.3125 C24.655 76.3125 13.435 76.3125 1.875 76.3125 C1.875 68.3925 1.875 60.4725 1.875 52.3125 C21.675 52.3125 41.475 52.3125 61.875 52.3125 C66.3586012 65.7633036 61.60191676 82.48613328 55.5625 94.75 C47.63987695 109.46106006 35.67566483 119.59644547 19.703125 125.0546875 C13.98496247 126.49408703 8.17632845 126.50977487 2.3125 126.5625 C1.52109619 126.57192627 0.72969238 126.58135254 -0.08569336 126.59106445 C-8.89432592 126.54268042 -16.31759338 124.66710514 -24.125 120.625 C-24.81779053 120.27123291 -25.51058105 119.91746582 -26.22436523 119.55297852 C-31.68817014 116.69019307 -36.53952641 113.45944597 -41.125 109.3125 C-41.73472656 108.78269531 -42.34445313 108.25289063 -42.97265625 107.70703125 C-51.06809961 100.21652212 -55.98503707 90.77378352 -59.125 80.3125 C-59.35058594 79.63316406 -59.57617188 78.95382813 -59.80859375 78.25390625 C-63.37217313 65.64620818 -62.53337439 48.57065523 -56.625 36.9375 C-46.3337515 19.47734782 -32.89816698 7.98643318 -13.76953125 1.10546875 C-9.12863579 0.09571336 -4.73647103 -0.02995058 0 0 Z " fill="#44A961" transform="translate(96.125,34.6875)"/>
<path d="M0 0 C1.39387939 0.00845947 1.39387939 0.00845947 2.81591797 0.01708984 C19.18165363 0.30440764 30.66281013 6.11290113 43.875 15.3125 C41.78628279 19.92826819 38.59132231 23.00110394 35.0625 26.5625 C34.44568359 27.2121875 33.82886719 27.861875 33.19335938 28.53125 C28.59334664 33.18503547 28.59334664 33.18503547 25.03515625 33.81640625 C22.36960581 33.19460515 21.06902822 31.95802117 18.875 30.3125 C15.91945606 29.16581355 12.90561179 28.23898537 9.875 27.3125 C8.39 26.8175 8.39 26.8175 6.875 26.3125 C-2.6269618 25.4180252 -10.93214408 26.5739483 -18.7890625 32.23046875 C-26.01969182 38.40162519 -33.10932148 45.53054854 -34.125 55.3125 C-34.49608122 63.23465255 -34.60100632 70.72973065 -32.125 78.3125 C-33.07375 78.498125 -34.0225 78.68375 -35 78.875 C-39.57707573 80.15210667 -43.01975038 82.85159005 -46.79296875 85.65625 C-48.85726953 87.12235307 -50.86773407 88.19111735 -53.125 89.3125 C-54.115 90.3025 -54.115 90.3025 -55.125 91.3125 C-61.30478849 75.26304932 -64.98010128 56.21324745 -58.0078125 39.66015625 C-48.4057812 20.75446185 -33.63118118 8.25011348 -13.76953125 1.10546875 C-9.12863579 0.09571336 -4.73647103 -0.02995058 0 0 Z " fill="#EB4535" transform="translate(96.125,34.6875)"/>
<path d="M0 0 C19.8 0 39.6 0 60 0 C64.48697629 13.46092886 59.71795655 30.16276462 53.6875 42.4375 C50.68240993 48.11594942 47.21507186 53.15715148 43 58 C39.17276971 56.60183675 36.6816826 54.93012813 33.61328125 52.234375 C30.9753041 50.21597118 28.07951223 49.22018409 25 48 C22 46 22 46 21.3125 43.875 C21.209375 43.25625 21.10625 42.6375 21 42 C22.299375 41.071875 22.299375 41.071875 23.625 40.125 C28.58211481 36.02743242 31.98187656 30.05437032 34 24 C22.78 24 11.56 24 0 24 C0 16.08 0 8.16 0 0 Z " fill="#528EF5" transform="translate(98,87)"/>
<path d="M0 0 C0.33 0.66 0.66 1.32 1 2 C2.6635479 2.67441131 4.33066942 3.3400321 6 4 C8.3125 5.5 8.3125 5.5 10 7 C10 7.66 10 8.32 10 9 C10.763125 9.28875 11.52625 9.5775 12.3125 9.875 C15 11 15 11 18 13 C18 13.66 18 14.32 18 15 C18.99 15 19.98 15 21 15 C20.98952637 15.59425781 20.97905273 16.18851563 20.96826172 16.80078125 C20.92628869 19.53380989 20.9005442 22.26677037 20.875 25 C20.85824219 25.93457031 20.84148438 26.86914062 20.82421875 27.83203125 C20.78393855 33.59209963 21.34583345 38.4774282 23 44 C22.05125 44.185625 21.1025 44.37125 20.125 44.5625 C15.54792427 45.83960667 12.10524962 48.53909005 8.33203125 51.34375 C6.26773047 52.80985307 4.25726593 53.87861735 2 55 C1.34 55.66 0.68 56.32 0 57 C-6.13036875 41.0788967 -9.87907216 22.02450421 -2.9765625 5.55859375 C-2.051079 3.67152632 -1.03534059 1.82910171 0 0 Z " fill="#FBBA09" transform="translate(41,69)"/>
<path d="M0 0 C3 2 3 2 4.375 4.375 C6.82003662 8.32467454 9.60535909 10.5351197 14 12 C16.28977874 12.10500836 18.58252821 12.14815535 20.87467957 12.16062927 C21.57805287 12.16571709 22.28142618 12.17080491 23.00611383 12.17604691 C25.3689014 12.19177414 27.73165838 12.20029717 30.09448242 12.20874023 C31.78635858 12.21827851 33.47823279 12.22816966 35.17010498 12.23838806 C40.73186934 12.26977711 46.29364868 12.29004072 51.85546875 12.30859375 C52.8018352 12.31189107 53.74820164 12.31518839 54.72324586 12.31858563 C63.64918149 12.34936719 72.57512049 12.37607359 81.50109386 12.39300442 C92.91585403 12.41491019 104.33014377 12.45687994 115.74471587 12.52644199 C123.77200855 12.5736992 131.79917438 12.5979403 139.8266018 12.6052013 C144.62028199 12.61015507 149.41343199 12.62520957 154.20696068 12.6649456 C158.71906653 12.70185573 163.23034033 12.71020748 167.74256897 12.69693947 C169.39534143 12.69699335 171.04815117 12.70726066 172.70078468 12.7286911 C183.99466761 13.02302513 183.99466761 13.02302513 193.60052967 7.61758518 C195.68686013 5.20608909 197.36860712 2.74074004 199 0 C199.33 0 199.66 0 200 0 C200 4.62 200 9.24 200 14 C134 14 68 14 0 14 C0 9.38 0 4.76 0 0 Z " fill="#B3B1AE" transform="translate(0,186)"/>
<path d="M0 0 C66 0 132 0 200 0 C200 4.62 200 9.24 200 14 C196 10 196 10 194.1875 7.4375 C190.64089914 3.48557333 186.63245761 2.17676217 181.48764801 1.61968327 C180.24217949 1.61725337 178.99671097 1.61482347 177.71350098 1.61231995 C177.01417151 1.60693441 176.31484204 1.60154887 175.59432077 1.59600013 C173.26907766 1.58178088 170.9444087 1.58880895 168.61914062 1.59594727 C166.94475347 1.59024058 165.2703702 1.58327516 163.59599304 1.57514954 C159.0609019 1.55723752 154.52600446 1.55838263 149.9908886 1.56409192 C146.20105746 1.56718611 142.4112634 1.56108887 138.62143755 1.55505317 C129.68004797 1.54101645 120.73875396 1.54256259 111.79736328 1.55395508 C102.57970663 1.56544017 93.3623408 1.55135213 84.14472246 1.5245586 C76.22264831 1.502395 68.3006654 1.49576558 60.37856245 1.50163502 C55.65052288 1.50500364 50.9226698 1.50259554 46.19465637 1.48538399 C41.74907066 1.46990602 37.30391569 1.47387974 32.85834694 1.49268913 C31.22937413 1.49637243 29.60036933 1.49327408 27.97142601 1.48280334 C25.74262293 1.46957324 23.51524178 1.48115659 21.28649902 1.49879456 C20.0410305 1.49900384 18.79556198 1.49921312 17.51235199 1.49942875 C12.37728306 2.23126539 8.59378658 4.26016923 5.0390625 8.140625 C4.57242187 8.83671875 4.10578125 9.5328125 3.625 10.25 C2.76487891 11.51028438 1.89422914 12.7636832 1 14 C0.67 14 0.34 14 0 14 C0 9.38 0 4.76 0 0 Z " fill="#BFB6B3" transform="translate(0,0)"/>
<path d="M0 0 C0.14308594 0.60328125 0.28617188 1.2065625 0.43359375 1.828125 C1.08324972 4.3192196 2.01075499 6.62581198 3 9 C2.401875 9.4125 1.80375 9.825 1.1875 10.25 C-1.07622793 11.90892198 -1.07622793 11.90892198 -2.625 14.1875 C-3.07875 14.785625 -3.5325 15.38375 -4 16 C-4.66 16 -5.32 16 -6 16 C-6 17.32 -6 18.64 -6 20 C-6.33 20.99 -6.66 21.98 -7 23 C-6.34 23 -5.68 23 -5 23 C-5 23.99 -5 24.98 -5 26 C-7.9719385 24.87548273 -10.33440687 23.77706209 -13 22 C-13.6875 19.875 -13.6875 19.875 -14 18 C-13.175 17.443125 -12.35 16.88625 -11.5 16.3125 C-6.33263824 12.08465856 -3.29445243 5.71094164 0 0 Z " fill="#528CE8" transform="translate(133,111)"/>
<path d="M0 0 C0.66 0 1.32 0 2 0 C2.38285156 0.86109375 2.76570313 1.7221875 3.16015625 2.609375 C5.19740799 6.3638007 7.53452953 9.15660711 10.4375 12.25 C10.91509766 12.77851563 11.39269531 13.30703125 11.88476562 13.8515625 C14.40759285 16.57856916 16.61467758 18.48855765 20 20 C20.33 20.66 20.66 21.32 21 22 C23.28453433 23.14226716 25.62508799 24.06253473 28 25 C28 25.66 28 26.32 28 27 C34.75505602 30.24558406 34.75505602 30.24558406 42 32 C42 32.66 42 33.32 42 34 C43.32 34.33 44.64 34.66 46 35 C39.92085319 34.52559612 35.44425423 33.19420166 30.0625 30.375 C29.36519775 30.01672119 28.66789551 29.65844238 27.94946289 29.28930664 C22.47637363 26.40467715 17.59842887 23.15957466 13 19 C12.37867188 18.45859375 11.75734375 17.9171875 11.1171875 17.359375 C6.34876561 12.94187593 2.90017313 7.81096961 0 2 C0 1.34 0 0.68 0 0 Z " fill="#469061" transform="translate(42,125)"/>
<path d="M0 0 C3.12364567 2.08243045 4.13062447 3.814156 5.8828125 7.046875 C7.68885372 10.20428973 9.84767698 13.07044922 12 16 C8.86650268 17.04449911 8.01031744 16.93423645 5 16 C5 15.34 5 14.68 5 14 C4.34 14 3.68 14 3 14 C3 13.34 3 12.68 3 12 C2.34 12 1.68 12 1 12 C0.67 10.35 0.34 8.7 0 7 C-0.99 7.495 -0.99 7.495 -2 8 C-2 7.01 -2 6.02 -2 5 C-2.78375 5.185625 -3.5675 5.37125 -4.375 5.5625 C-7 6 -7 6 -9 5 C-3.375 1.125 -3.375 1.125 0 0 Z " fill="#4C9E55" transform="translate(62,112)"/>
<path d="M0 0 C0.33 0 0.66 0 1 0 C1 4.62 1 9.24 1 14 C-3.62 14 -8.24 14 -13 14 C-10.4683447 11.4683447 -7.93701106 8.9385108 -5.375 6.4375 C-3.36904445 4.37875614 -1.704707 2.30135445 0 0 Z " fill="#ffffff" transform="translate(199,186)"/>
<path d="M0 0 C3 2 3 2 4.25 4.3125 C6.29225398 7.44881862 8.45650416 8.90506579 11.57421875 10.88671875 C12.04472656 11.25410156 12.51523438 11.62148437 13 12 C13 12.66 13 13.32 13 14 C8.71 14 4.42 14 0 14 C0 9.38 0 4.76 0 0 Z " fill="#ffffff" transform="translate(0,186)"/>
<path d="M0 0 C0.495 1.98 0.495 1.98 1 4 C-5.625 8 -5.625 8 -9 8 C-9.33 8.66 -9.66 9.32 -10 10 C-10.99 9.34 -11.98 8.68 -13 8 C-15.02542148 7.63648496 -15.02542148 7.63648496 -17.23046875 7.5859375 C-18.03291016 7.54726562 -18.83535156 7.50859375 -19.66210938 7.46875 C-20.91217773 7.42234375 -20.91217773 7.42234375 -22.1875 7.375 C-23.4549707 7.31699219 -23.4549707 7.31699219 -24.74804688 7.2578125 C-26.83167524 7.16363721 -28.91580753 7.08073325 -31 7 C-31.33 6.34 -31.66 5.68 -32 5 C-30.85402344 5.02320313 -29.70804687 5.04640625 -28.52734375 5.0703125 C-26.9974024 5.08908479 -25.46745394 5.10728341 -23.9375 5.125 C-23.18533203 5.14175781 -22.43316406 5.15851563 -21.65820312 5.17578125 C-13.79229937 5.24388431 -7.06761406 0 0 0 Z " fill="#44A066" transform="translate(120,130)"/>
<path d="M0 0 C3.96 0 7.92 0 12 0 C12 4.62 12 9.24 12 14 C8 10 8 10 6 7.4375 C4.12306403 4.95292181 4.12306403 4.95292181 1.75 3.3125 C1.1725 2.879375 0.595 2.44625 0 2 C0 1.34 0 0.68 0 0 Z " fill="#ffffff" transform="translate(188,0)"/>
<path d="M0 0 C4.29 0 8.58 0 13 0 C12.29875 0.680625 11.5975 1.36125 10.875 2.0625 C8.20116605 4.72871619 5.76028706 7.5596584 3.33203125 10.44921875 C2.27444643 11.68048318 1.14771463 12.85228537 0 14 C0 9.38 0 4.76 0 0 Z " fill="#ffffff" transform="translate(0,0)"/>
<path d="M0 0 C2.95409701 1.37154504 5.44008376 2.98863724 8 5 C-2.96666667 15 -2.96666667 15 -8 15 C-7.67 14.01 -7.34 13.02 -7 12 C-6.01 12 -5.02 12 -4 12 C-4.33 11.01 -4.66 10.02 -5 9 C-3.97746933 6.40434522 -2.98953324 4.98953324 -1 3 C-0.67 2.01 -0.34 1.02 0 0 Z " fill="#409D6E" transform="translate(132,140)"/>
<path d="M0 0 C1 3 1 3 -0.2578125 5.5234375 C-3.50269896 10.47901723 -6.53591894 15.07701967 -11 19 C-15.875 16.25 -15.875 16.25 -17 14 C-16 12 -16 12 -14.1875 11.3125 C-11.81180233 10.97311462 -10.26664171 11.27143659 -8 12 C-8 11.34 -8 10.68 -8 10 C-7.01 9.67 -6.02 9.34 -5 9 C-4.30741771 7.00882592 -3.64252365 5.0078864 -3 3 C-1.375 1.125 -1.375 1.125 0 0 Z " fill="#4991E9" transform="translate(151,126)"/>
<path d="M0 0 C0.66 0.33 1.32 0.66 2 1 C3.66392045 1.67349161 5.33032028 2.3409159 7 3 C7 3.66 7 4.32 7 5 C13.75505602 8.24558406 13.75505602 8.24558406 21 10 C21 10.66 21 11.32 21 12 C22.32 12.33 23.64 12.66 25 13 C18.7407865 12.53635456 14.2146695 11.03733294 8.6875 8.125 C7.98560547 7.77308594 7.28371094 7.42117187 6.56054688 7.05859375 C3.20142351 5.33580217 0.59527257 3.78577399 -2 1 C-1.34 0.67 -0.68 0.34 0 0 Z " fill="#62986B" transform="translate(63,147)"/>
<path d="M0 0 C-3.12437857 4.55638541 -6.97720024 7.7169092 -12 10 C-12.66 9.67 -13.32 9.34 -14 9 C-13.08259025 5.33036099 -11.85358306 3.60779821 -8.6875 1.6875 C-5.69180869 0.12698298 -3.41662096 -0.41413587 0 0 Z " fill="#E43931" transform="translate(75,41)"/>
<path d="M0 0 C1.74834267 2.622514 2.51529754 3.99484478 3 7 C2.67 7.66 2.34 8.32 2 9 C2.66 9 3.32 9 4 9 C4 9.99 4 10.98 4 12 C1.0280615 10.87548273 -1.33440687 9.77706209 -4 8 C-4.6875 5.875 -4.6875 5.875 -5 4 C-3.35 2.68 -1.7 1.36 0 0 Z " fill="#4F96D8" transform="translate(124,125)"/>
<path d="M0 0 C3 2 3 2 3.6875 5.125 C3.790625 6.07375 3.89375 7.0225 4 8 C3.38125 7.814375 2.7625 7.62875 2.125 7.4375 C-0.04160178 6.76313824 -0.04160178 6.76313824 -2 8 C-2 7.01 -2 6.02 -2 5 C-2.78375 5.185625 -3.5675 5.37125 -4.375 5.5625 C-7 6 -7 6 -9 5 C-3.375 1.125 -3.375 1.125 0 0 Z " fill="#509F48" transform="translate(62,112)"/>
<path d="M0 0 C3.16451962 0.63432938 5.51687779 1.73182928 8.25 3.4375 C8.95640625 3.86933594 9.6628125 4.30117188 10.390625 4.74609375 C10.92171875 5.15988281 11.4528125 5.57367188 12 6 C12 6.66 12 7.32 12 8 C10.35 8.33 8.7 8.66 7 9 C7 8.34 7 7.68 7 7 C5.02 6.34 3.04 5.68 1 5 C0.67 3.35 0.34 1.7 0 0 Z " fill="#E13B33" transform="translate(128,44)"/>
<path d="M0 0 C0.66 0.33 1.32 0.66 2 1 C1.01 2.485 1.01 2.485 0 4 C0 4.66 0 5.32 0 6 C-0.99 6.33 -1.98 6.66 -3 7 C-3.680625 7.680625 -4.36125 8.36125 -5.0625 9.0625 C-5.701875 9.701875 -6.34125 10.34125 -7 11 C-7.66 11 -8.32 11 -9 11 C-8.67 8.69 -8.34 6.38 -8 4 C-7.236875 3.896875 -6.47375 3.79375 -5.6875 3.6875 C-2.82940576 2.95635961 -1.84257115 2.23048087 0 0 Z " fill="#3BA466" transform="translate(128,146)"/>
<path d="M0 0 C0.66 0.33 1.32 0.66 2 1 C1.525625 1.5775 1.05125 2.155 0.5625 2.75 C-0.9484867 4.92582084 -1.54036151 6.42602448 -2 9 C-2.66 9 -3.32 9 -4 9 C-4.99 10.485 -4.99 10.485 -6 12 C-6.12375 11.195625 -6.2475 10.39125 -6.375 9.5625 C-6.684375 8.2940625 -6.684375 8.2940625 -7 7 C-7.66 6.67 -8.32 6.34 -9 6 C-6.03 4.02 -3.06 2.04 0 0 Z " fill="#57A446" transform="translate(51,118)"/>
<path d="M0 0 C2.95409701 1.37154504 5.44008376 2.98863724 8 5 C6.68 6.32 5.36 7.64 4 9 C2.68 8.34 1.36 7.68 0 7 C0 4.69 0 2.38 0 0 Z " fill="#399785" transform="translate(132,140)"/>
<path d="M0 0 C2 1 2 1 5 3 C3.625 4.5 3.625 4.5 2 6 C1.34 6 0.68 6 0 6 C-0.33 6.66 -0.66 7.32 -1 8 C-1.99 7.67 -2.98 7.34 -4 7 C-2.92598892 4.08482708 -2.22189824 2.22189824 0 0 Z " fill="#4AA954" transform="translate(53,118)"/>
<path d="M0 0 C1.29683623 3.89050869 0.41347964 5.68528522 -0.8125 9.5625 C-1.16957031 10.71878906 -1.52664062 11.87507813 -1.89453125 13.06640625 C-3 16 -3 16 -5 18 C-6.55042709 14.89914583 -5.20786623 12.79666435 -4.1875 9.5625 C-3.83042969 8.40878906 -3.47335938 7.25507812 -3.10546875 6.06640625 C-2 3 -2 3 0 0 Z " fill="#5B92EB" transform="translate(157,109)"/>
<path d="M0 0 C1.0625 1.875 1.0625 1.875 2 4 C1.67 4.66 1.34 5.32 1 6 C-1.3140622 6.73075648 -3.64828869 7.40138258 -6 8 C-6.625 6.1875 -6.625 6.1875 -7 4 C-6.34 3.01 -5.68 2.02 -5 1 C-3 1 -3 1 -1.375 2.5 C-0.92125 2.995 -0.4675 3.49 0 4 C0 2.68 0 1.36 0 0 Z " fill="#D8B91E" transform="translate(62,107)"/>
<path d="M0 0 C2.97 0 5.94 0 9 0 C7 4 7 4 5 6 C2.5 4.6875 2.5 4.6875 0 3 C0 2.01 0 1.02 0 0 Z " fill="#3D91D8" transform="translate(135,139)"/>
<path d="M0 0 C0.66 0 1.32 0 2 0 C2.37125 0.825 2.7425 1.65 3.125 2.5 C5.36264618 6.67693953 8.08258261 10.28005679 11 14 C10.01 14 9.02 14 8 14 C6.2109375 11.953125 6.2109375 11.953125 4.375 9.25 C3.76398437 8.36828125 3.15296875 7.4865625 2.5234375 6.578125 C1.17359739 4.29378021 0.44744063 2.58789988 0 0 Z " fill="#578F5C" transform="translate(42,125)"/>
<path d="M0 0 C6.6 0 13.2 0 20 0 C19.67 0.99 19.34 1.98 19 3 C13.06 2.67 7.12 2.34 1 2 C0.67 1.34 0.34 0.68 0 0 Z " fill="#54966B" transform="translate(88,135)"/>
<path d="M0 0 C0.33 1.32 0.66 2.64 1 4 C-1.25 5.125 -1.25 5.125 -4 6 C-6.3125 5.125 -6.3125 5.125 -8 4 C-2.7826087 0 -2.7826087 0 0 0 Z " fill="#4A9B7D" transform="translate(120,130)"/>
<path d="M0 0 C0.66 0.33 1.32 0.66 2 1 C3.33350067 5.44500224 4.29175731 9.3318831 4 14 C2.39061535 11.58592302 1.34509262 9.65955563 0.3125 7 C0.04050781 6.319375 -0.23148438 5.63875 -0.51171875 4.9375 C-1 3 -1 3 0 0 Z " fill="#F8BA1E" transform="translate(38,112)"/>
<path d="M0 0 C0.66 0.33 1.32 0.66 2 1 C0.70700306 3.88437779 -0.65941363 5.87219421 -3 8 C-3.99 7.67 -4.98 7.34 -6 7 C-4.02 4.69 -2.04 2.38 0 0 Z " fill="#E64940" transform="translate(54,52)"/>
<path d="M0 0 C0.33 0.99 0.66 1.98 1 3 C-0.21484375 5.26171875 -0.21484375 5.26171875 -1.9375 7.6875 C-2.50339844 8.49574219 -3.06929687 9.30398437 -3.65234375 10.13671875 C-4.09707031 10.75160156 -4.54179687 11.36648437 -5 12 C-5 7.81983258 -4.15100706 4.32808507 -1.375 1.125 C-0.92125 0.75375 -0.4675 0.3825 0 0 Z " fill="#4784E0" transform="translate(151,126)"/>
<path d="M0 0 C1.98 0 3.96 0 6 0 C5.67 1.65 5.34 3.3 5 5 C2.525 4.01 2.525 4.01 0 3 C0 2.01 0 1.02 0 0 Z " fill="#EB4721" transform="translate(42,68)"/>
<path d="M0 0 C1.31554985 0.4495045 2.62738358 0.90989716 3.9375 1.375 C5.03384766 1.75785156 5.03384766 1.75785156 6.15234375 2.1484375 C8 3 8 3 9 5 C7.02 4.34 5.04 3.68 3 3 C3 3.99 3 4.98 3 6 C2.34 5.67 1.68 5.34 1 5 C0.375 2.4375 0.375 2.4375 0 0 Z " fill="#4B9F80" transform="translate(123,135)"/>
<path d="M0 0 C1.32 0 2.64 0 4 0 C3.67 0.99 3.34 1.98 3 3 C2.34 3 1.68 3 1 3 C0.67 4.32 0.34 5.64 0 7 C-1.125 2.25 -1.125 2.25 0 0 Z " fill="#4A87F0" transform="translate(99,88)"/>
</svg>
