<?xml version="1.0" standalone="no"?>
<!DOCTYPE svg PUBLIC "-//W3C//DTD SVG 20010904//EN"
 "http://www.w3.org/TR/2001/REC-SVG-20010904/DTD/svg10.dtd">
<svg version="1.0" xmlns="http://www.w3.org/2000/svg"
 width="512.000000pt" height="512.000000pt" viewBox="0 0 512.000000 512.000000"
 preserveAspectRatio="xMidYMid meet">

<g transform="translate(0.000000,512.000000) scale(0.100000,-0.100000)"
fill="#000000" stroke="none">
<path d="M1299 4146 c-134 -38 -242 -143 -283 -278 -5 -16 -11 -15 -63 10 -48
22 -72 26 -143 27 -178 0 -317 -92 -381 -252 -22 -54 -24 -75 -27 -324 l-3
-267 -87 -4 c-105 -5 -162 -28 -222 -88 -82 -82 -85 -97 -85 -410 0 -313 3
-328 85 -410 60 -60 117 -83 222 -88 l87 -4 3 -267 c3 -249 5 -270 27 -324 64
-160 203 -252 381 -252 71 1 95 5 143 27 52 25 58 26 63 10 58 -192 251 -317
439 -285 172 30 299 148 334 311 7 34 11 186 11 417 l0 365 760 0 760 0 0
-365 c0 -231 4 -383 11 -417 35 -163 162 -281 334 -311 188 -32 381 93 439
285 5 16 11 15 63 -10 48 -22 72 -26 143 -27 178 0 317 92 381 252 22 54 24
75 27 324 l3 267 87 4 c105 5 162 28 222 88 82 82 85 97 85 410 0 313 -3 328
-85 410 -60 60 -117 83 -222 88 l-87 4 -3 267 c-3 249 -5 270 -27 324 -64 160
-203 252 -381 252 -71 -1 -95 -5 -143 -27 -52 -25 -58 -26 -63 -10 -58 192
-251 317 -439 285 -172 -30 -299 -148 -334 -311 -7 -34 -11 -186 -11 -417 l0
-365 -760 0 -760 0 0 365 c0 386 -4 434 -47 519 -30 59 -106 137 -161 165 -94
48 -203 61 -293 37z m211 -220 c21 -13 48 -42 61 -63 l24 -38 0 -1265 0 -1265
-24 -38 c-13 -21 -42 -50 -64 -65 -34 -22 -52 -27 -106 -27 -77 0 -124 26
-169 92 l-27 38 0 1265 0 1265 27 38 c27 40 78 80 113 90 43 12 127 -2 165
-27z m2315 1 c20 -14 49 -42 63 -64 l27 -38 0 -1265 0 -1265 -27 -38 c-45 -66
-92 -92 -169 -92 -54 0 -72 5 -106 27 -22 15 -51 44 -64 65 l-24 38 -3 1243
c-1 859 1 1256 8 1283 13 48 76 114 122 128 52 16 132 6 173 -22z m-2919 -249
c19 -13 47 -41 62 -62 l27 -39 0 -1017 0 -1016 -25 -37 c-14 -21 -43 -50 -64
-65 -33 -23 -50 -27 -106 -27 -56 0 -73 4 -106 27 -21 15 -50 44 -64 65 l-25
37 -3 993 c-1 658 1 1007 8 1033 12 45 80 116 124 130 49 15 133 4 172 -22z
m3520 0 c19 -13 47 -41 62 -62 l27 -39 0 -1017 0 -1016 -25 -37 c-14 -21 -43
-50 -64 -65 -33 -23 -50 -27 -106 -27 -56 0 -73 4 -106 27 -21 15 -50 44 -64
65 l-25 37 -3 993 c-1 658 1 1007 8 1033 12 45 80 116 124 130 49 15 133 4
172 -22z m-4026 -1119 l0 -301 -70 4 c-60 3 -74 8 -98 31 l-27 27 0 239 c0
225 1 240 20 261 28 31 51 39 118 39 l57 1 0 -301z m2920 201 l0 -99 -371 -3
-371 -3 -29 -33 c-38 -42 -38 -82 0 -124 l29 -33 371 -3 371 -3 0 -99 0 -100
-760 0 -760 0 0 300 0 300 760 0 760 0 0 -100z m1568 67 l27 -27 0 -240 0
-240 -27 -27 c-24 -23 -38 -28 -98 -31 l-70 -4 0 302 0 302 70 -4 c60 -3 74
-8 98 -31z"/>
<path d="M2185 2651 c-62 -26 -81 -110 -34 -156 14 -14 42 -28 62 -32 32 -5
41 -1 72 30 47 47 48 86 1 133 -34 34 -61 41 -101 25z"/>
</g>
</svg>
