<?xml version="1.0" encoding="UTF-8"?>
<svg version="1.1" xmlns="http://www.w3.org/2000/svg" width="2084" height="2084">
<path d="M0 0 C6.17989184 0.00862182 12.35976453 -0.00041764 18.53965538 -0.00706416 C29.33812881 -0.0163026 40.13654271 -0.01465207 50.93501257 -0.00533163 C62.50375883 0.00459984 74.07247947 0.00787904 85.64122939 0.0032915 C86.3758915 0.00300446 87.11055362 0.00271742 87.86747823 0.00242169 C90.86033872 0.00123005 93.85319919 -0.00000913 96.84605964 -0.00130823 C124.62688968 -0.01336519 152.40770026 -0.01090635 180.18852973 0.00088061 C206.94649051 0.01221653 233.70444263 0.01816515 260.46240592 0.01669253 C262.14660319 0.01660712 263.83080046 0.01652225 265.51499772 0.01643789 C272.28389739 0.01609002 279.05279706 0.01570492 285.82169672 0.01527231 C304.73977525 0.01407804 323.65785371 0.01389566 342.57593226 0.01447523 C343.86784353 0.01451427 343.86784353 0.01451427 345.18585402 0.0145541 C372.60500307 0.01545197 400.02414942 0.02074367 427.44329714 0.0291828 C428.77612337 0.02959258 428.77612337 0.02959258 430.13587538 0.03001064 C444.56320871 0.03446373 458.99054196 0.03917877 473.4178752 0.04390953 C530.65259186 0.06266034 587.88729531 0.06907109 645.12201476 0.06352747 C648.74043494 0.06318049 652.35885513 0.06283487 655.97727531 0.06248918 C657.31926034 0.06236078 657.31926034 0.06236078 658.68835617 0.06222978 C668.59720937 0.06128358 678.50606258 0.06037186 688.4149158 0.05950201 C689.74792267 0.05938364 689.74792267 0.05938364 691.10785898 0.05926287 C739.11662759 0.05503757 787.12539472 0.06034892 835.1341626 0.06901331 C836.82729923 0.06931659 838.52043586 0.06961948 840.21357249 0.069922 C841.46898073 0.07014639 841.46898073 0.07014639 842.74975075 0.07037531 C844.43819375 0.07067673 846.12663675 0.07097772 847.81507974 0.07127827 C852.02119742 0.07202711 856.2273151 0.0727831 860.43343278 0.07355445 C878.84987902 0.07689923 897.26632418 0.07897386 915.68277072 0.07761873 C916.51140078 0.07755819 917.34003084 0.07749765 918.1937709 0.07743527 C922.36523501 0.07712333 926.53669911 0.07678991 930.70816322 0.07644895 C960.89185184 0.07399503 991.07552763 0.07808194 1021.25921274 0.09365895 C1024.23750884 0.09516877 1027.21580496 0.09664882 1030.19410109 0.0981058 C1031.2904277 0.09864691 1031.2904277 0.09864691 1032.40890233 0.09919895 C1043.94642404 0.10471908 1055.48393496 0.10360902 1067.02145692 0.09970096 C1078.38657545 0.09599678 1089.75166837 0.09969257 1101.11678413 0.11056517 C1107.18716576 0.11617481 1113.25750382 0.11872304 1119.32788575 0.1123986 C1165.67296017 0.06812298 1165.67296017 0.06812298 1185.82636046 2.3792013 C1187.23740845 2.5301222 1188.64852357 2.68041749 1190.05971938 2.82994992 C1193.32500346 3.18950627 1196.57352487 3.60870365 1199.82636046 4.0667013 C1201.01092833 4.23331263 1202.1954962 4.39992396 1203.41596007 4.57158411 C1285.53502316 16.69618766 1367.0122426 51.2058954 1429.93573546 105.8870138 C1432.60054245 108.18450956 1435.32049763 110.38016343 1438.07636046 112.5667013 C1452.68417843 124.47015647 1466.95435766 138.05634244 1479.15839171 152.42998255 C1481.80327049 155.5208362 1484.57143829 158.50002611 1487.32245421 161.4963888 C1490.95930628 165.68359134 1494.38863144 170.02793023 1497.82636046 174.3792013 C1498.76717467 175.56884486 1498.76717467 175.56884486 1499.72699523 176.78252161 C1510.23434753 190.15375377 1519.79020858 203.97652814 1528.82636046 218.3792013 C1529.25996886 219.06643275 1529.69357726 219.75366419 1530.1403253 220.46172083 C1562.48351259 272.00232946 1583.71181355 330.18999205 1593.63886046 390.1292013 C1593.91306822 391.77275599 1593.91306822 391.77275599 1594.19281554 393.4495138 C1594.67664071 396.57748939 1595.10155144 399.70814617 1595.50185219 402.8477521 C1595.72536716 404.59136495 1595.9553412 406.33415793 1596.19063206 408.07622076 C1599.41097333 432.57858311 1599.2552477 457.02648943 1599.21176312 481.6966142 C1599.2040754 487.96882193 1599.21396315 494.24100801 1599.22149312 500.51321257 C1599.23227615 511.48011656 1599.23213391 522.44696829 1599.22435164 533.41387308 C1599.21606291 545.16652354 1599.21438473 556.91914798 1599.22056365 568.67180003 C1599.22095116 569.41743385 1599.22133868 570.16306767 1599.22173794 570.93129646 C1599.22333797 573.96874531 1599.22498412 577.00619414 1599.22668877 580.04364294 C1599.24251117 608.25721578 1599.24365311 636.47077121 1599.23524642 664.68434657 C1599.2271509 691.86706787 1599.22398526 719.04978093 1599.22780776 746.2325033 C1599.2280402 747.94285201 1599.22827166 749.65320072 1599.22850217 751.36354943 C1599.22943365 758.23751017 1599.23038965 765.11147092 1599.23138146 771.98543165 C1599.23413187 791.19850068 1599.23584412 810.41156973 1599.23673987 829.62463892 C1599.23678081 830.4994042 1599.23682174 831.37416948 1599.23686392 832.2754428 C1599.23809093 860.1304392 1599.23471534 887.9854331 1599.22819113 915.84042872 C1599.22798039 916.74328081 1599.22776964 917.64613291 1599.22755251 918.57634416 C1599.22411806 933.23613855 1599.22045949 947.89593288 1599.21678198 962.55572721 C1599.20221407 1020.69057707 1599.20289025 1078.82540621 1599.21747374 1136.96025599 C1599.2211376 1151.6128286 1599.22477088 1166.26540121 1599.22819113 1180.91797388 C1599.22850815 1182.2714709 1599.22850815 1182.2714709 1599.22883157 1183.65231129 C1599.23530449 1211.47946242 1599.23804213 1239.30661182 1599.23673987 1267.13376368 C1599.23669912 1268.0078787 1599.23665836 1268.88199373 1599.23661638 1269.78259708 C1599.23567875 1288.97466846 1599.23377748 1308.16673966 1599.23100836 1327.35881086 C1599.23002103 1334.22645995 1599.22908177 1341.09410905 1599.22815623 1347.96175815 C1599.22792406 1349.67009814 1599.22768787 1351.37843812 1599.22744764 1353.08677811 C1599.22363739 1380.25674941 1599.22790234 1407.42671168 1599.23599807 1434.59668179 C1599.24428989 1462.73236911 1599.24119419 1490.86803559 1599.22540418 1519.00371993 C1599.22374728 1522.03134746 1599.22213715 1525.05897501 1599.22056365 1528.08660258 C1599.22017303 1528.82958485 1599.2197824 1529.57256713 1599.21937995 1530.33806402 C1599.21348652 1542.05377282 1599.21755703 1553.76945549 1599.22587066 1565.48516191 C1599.2338499 1577.03370823 1599.23069277 1588.58219712 1599.2168284 1600.13074069 C1599.2097267 1606.29601214 1599.20717919 1612.46118569 1599.21804635 1618.62645388 C1599.25797078 1643.0561859 1599.14360878 1667.13530561 1595.82636046 1691.3792013 C1595.70446582 1692.29350566 1595.58257119 1693.20781002 1595.45698277 1694.14982057 C1594.77717641 1699.20278826 1594.00836619 1704.23045659 1593.13886046 1709.2542013 C1593.01319701 1709.99202845 1592.88753356 1710.7298556 1592.75806212 1711.49004115 C1578.92687358 1792.06007146 1543.19994521 1867.73628621 1490.82636046 1930.3792013 C1490.17377257 1931.16133997 1490.17377257 1931.16133997 1489.50800108 1931.95927943 C1476.68704921 1947.27570571 1463.14036055 1962.55855851 1447.93182921 1975.5510763 C1445.46909018 1977.68941 1443.09148703 1979.91004729 1440.70136046 1982.1292013 C1434.9499781 1987.36706738 1428.91749153 1992.16260892 1422.74921202 1996.89775599 C1420.75330162 1998.43548889 1418.76989605 1999.9884148 1416.78729796 2001.5432638 C1367.09176726 2040.31031191 1308.78367995 2067.78212771 1247.82636046 2083.3792013 C1247.13936901 2083.55566478 1246.45237756 2083.73212826 1245.74456819 2083.91393912 C1241.63548487 2084.56906762 1237.59616993 2084.51991744 1233.44143319 2084.51260514 C1232.48589116 2084.51487707 1231.53034914 2084.51714901 1230.5458513 2084.51948978 C1227.31892097 2084.52592882 1224.09203104 2084.52522507 1220.8650949 2084.52459563 C1218.52819568 2084.52776068 1216.19129702 2084.53135964 1213.85439908 2084.53535507 C1208.0696003 2084.54408671 1202.28481113 2084.54813765 1196.50000644 2084.55025619 C1189.52474442 2084.5530651 1182.54949236 2084.5616154 1175.57423561 2084.57030983 C1161.72621266 2084.58737391 1147.87818928 2084.59861936 1134.03015904 2084.60766015 C1121.62295334 2084.61579588 1109.21575178 2084.62622756 1096.80854964 2084.63865603 C1095.97448128 2084.63948856 1095.14041292 2084.6403211 1094.28106976 2084.64117886 C1090.88413029 2084.64457063 1087.48719084 2084.64796819 1084.09025139 2084.65137554 C1038.09429128 2084.6974098 992.09832302 2084.72844387 946.10234885 2084.75636299 C943.23938892 2084.75810343 940.37642899 2084.75985391 937.51346907 2084.76160752 C862.80931903 2084.80733869 788.10516544 2084.84696509 713.40100604 2084.87363246 C695.92031671 2084.87987496 678.43962746 2084.88634798 660.95893826 2084.89292927 C657.85975734 2084.89409417 654.76057643 2084.89525041 651.66139551 2084.89640656 C586.3836341 2084.92087429 521.10593319 2084.9726526 455.82820383 2085.04088127 C408.18839985 2085.09066244 360.54860925 2085.13651274 312.90878081 2085.15397299 C311.92840795 2085.15433415 310.9480351 2085.15469531 309.93795397 2085.15506742 C288.41274412 2085.16291657 266.88753425 2085.16854617 245.36232327 2085.17209082 C236.70048923 2085.17355196 228.03865525 2085.17530935 219.37682127 2085.17715777 C218.4288527 2085.17735215 217.48088412 2085.17754652 216.50418922 2085.17774679 C186.00086327 2085.1841406 155.49762595 2085.21542768 124.99433339 2085.25972263 C94.25123354 2085.304234 63.50822736 2085.32343864 32.76509601 2085.30801199 C28.50932969 2085.30588144 24.25356329 2085.30403379 19.99779677 2085.30235613 C19.16360541 2085.30201676 18.32941406 2085.30167739 17.46994417 2085.30132774 C4.30233254 2085.2967048 -8.86508971 2085.31887789 -22.03265361 2085.35244041 C-35.00536774 2085.38494595 -47.97783029 2085.38854838 -60.95056094 2085.36217998 C-67.88005779 2085.34887063 -74.80896978 2085.34784767 -81.73840136 2085.38394554 C-133.74752067 2085.63281211 -133.74752067 2085.63281211 -155.68087465 2077.32229436 C-159.21965111 2075.98346152 -162.81768367 2074.90279891 -166.43535829 2073.79717005 C-168.5813787 2073.06557945 -170.72352767 2072.32250807 -172.86113954 2071.5667013 C-174.03918153 2071.1549264 -175.21722352 2070.7431515 -176.43096376 2070.31889857 C-188.91031405 2065.88081389 -201.08326764 2060.77840718 -213.17363954 2055.3792013 C-214.03102724 2054.99941126 -214.88841493 2054.61962122 -215.77178407 2054.2283224 C-256.93935711 2035.85922098 -296.53703075 2009.52446541 -329.54863954 1978.7932638 C-331.60056256 1976.90622745 -333.67890711 1975.08664452 -335.79473329 1973.27373255 C-340.66760753 1969.02382722 -345.23236886 1964.47098779 -349.79204774 1959.89116419 C-351.23389175 1958.44395745 -352.6810107 1957.00218104 -354.12871767 1955.56084193 C-359.35661919 1950.33708167 -364.38856984 1945.01160333 -369.17363954 1939.3792013 C-370.15820858 1938.24932854 -371.14385326 1937.12039203 -372.13067079 1935.99248255 C-378.77438307 1928.3348566 -385.13455786 1920.52412991 -391.17363954 1912.3792013 C-391.67508485 1911.70373255 -392.17653017 1911.0282638 -392.69317079 1910.3323263 C-410.20739702 1886.63911515 -424.87978489 1861.65732768 -438.17363954 1835.3792013 C-438.61063173 1834.52133021 -439.04762392 1833.66345911 -439.49785829 1832.77959193 C-462.9580495 1786.40059854 -476.48727512 1734.79100221 -482.42363954 1683.3167013 C-482.50681428 1682.6016543 -482.58998903 1681.88660731 -482.67568422 1681.14989222 C-484.72670761 1663.26987608 -485.32286442 1645.49046955 -485.30227399 1627.50450171 C-485.30362347 1625.4457849 -485.30540895 1623.38706835 -485.30758623 1621.32835225 C-485.31228648 1615.69596324 -485.31082427 1610.06359052 -485.30830846 1604.43120074 C-485.30666842 1598.29387967 -485.31082199 1592.15656198 -485.31421763 1586.019242 C-485.31936185 1575.27059218 -485.32082538 1564.52194829 -485.31976152 1553.77329768 C-485.318635 1542.24621018 -485.31967833 1530.71912591 -485.32333398 1519.1920389 C-485.32356364 1518.46250737 -485.32379329 1517.73297583 -485.3240299 1516.98133728 C-485.3249716 1514.0097825 -485.32592729 1511.03822773 -485.32690109 1508.06667296 C-485.3370322 1477.10594277 -485.34010659 1446.14521439 -485.3406932 1415.18448272 C-485.34075795 1411.85439347 -485.34082589 1408.52430421 -485.34089661 1405.19421495 C-485.34091362 1404.36779128 -485.34093062 1403.54136762 -485.34094814 1402.68990081 C-485.34135702 1384.35660746 -485.34354831 1366.02331445 -485.34605246 1347.69002128 C-485.34708085 1340.13518149 -485.3480709 1332.5803417 -485.34906871 1325.02550192 C-485.3491793 1324.19069219 -485.34928988 1323.35588247 -485.34940383 1322.49577548 C-485.35572598 1274.67107555 -485.35985315 1226.84637585 -485.35939527 1179.02167548 C-485.35937949 1177.23277377 -485.35936376 1175.44387206 -485.35934806 1173.65497036 C-485.35927468 1165.57868044 -485.35918651 1157.50239053 -485.35909418 1149.42610062 C-485.35905305 1145.82486557 -485.35901291 1142.22363052 -485.35897286 1138.62239548 C-485.35895247 1136.81991445 -485.35893145 1135.01743343 -485.3589098 1133.2149524 C-485.35822975 1076.23446175 -485.36554436 1019.25397732 -485.37945009 962.27348841 C-485.38295132 947.91902771 -485.38642087 933.56456701 -485.38971448 919.21010626 C-485.38991736 918.32615834 -485.39012023 917.44221043 -485.39032925 916.53147621 C-485.39654793 889.2707993 -485.40031053 862.01012291 -485.40157247 834.74944533 C-485.40161242 833.89308561 -485.40165237 833.0367259 -485.40169353 832.15441588 C-485.40254696 813.35172262 -485.40280795 794.54902938 -485.40252316 775.74633609 C-485.40242668 769.0177114 -485.40237463 762.28908671 -485.40234443 755.56046202 C-485.40233651 753.88665279 -485.40232631 752.21284355 -485.4023138 750.53903432 C-485.40213777 723.91187042 -485.40782393 697.28471187 -485.41646762 670.6575495 C-485.42513372 643.82489752 -485.427295 616.99225291 -485.4207063 590.15960011 C-485.41979413 586.44365855 -485.41895082 582.72771697 -485.41814828 579.01177538 C-485.4179882 578.28342045 -485.41782811 577.55506551 -485.41766317 576.80463922 C-485.41531932 565.31825131 -485.41964646 553.83187623 -485.42681947 542.34549074 C-485.43374805 531.02332922 -485.43325711 519.70119131 -485.42562733 508.37902841 C-485.42175686 502.33413131 -485.42093817 496.28927931 -485.42908469 490.24438545 C-485.46539054 461.4443514 -485.43506119 432.77055809 -481.36113954 404.1917013 C-481.18937196 402.95798792 -481.01760438 401.72427454 -480.84063173 400.45317591 C-473.76265867 351.07513402 -459.55270789 301.82379178 -436.29278017 257.5276388 C-434.99735785 255.04078967 -433.73434325 252.53850009 -432.47051454 250.0354513 C-415.04187871 215.75816752 -392.8285419 183.19224129 -366.58770204 155.0042013 C-364.71714176 152.97019401 -362.91483675 150.91096541 -361.11895204 148.81279505 C-356.62976705 143.66730352 -351.82231344 138.84182116 -346.99590517 134.01616419 C-345.43503627 132.45311396 -343.88236066 130.88222765 -342.32988954 129.31084193 C-336.66464309 123.61470157 -330.8925948 118.31210606 -324.58257509 113.32671107 C-322.19538143 111.39677858 -319.96340838 109.36532908 -317.73613954 107.2542013 C-309.73796811 99.9888797 -300.89598444 93.73630061 -292.17363954 87.3792013 C-291.34477235 86.77350306 -290.51590517 86.16780482 -289.66192079 85.54375208 C-276.9662528 76.31719051 -263.84040932 68.08740836 -250.17363954 60.3792013 C-249.20909852 59.83376673 -248.24455751 59.28833216 -247.25078798 58.72636927 C-224.38200045 45.87352217 -200.81820164 35.34434023 -176.17363954 26.3792013 C-174.73746278 25.85181361 -174.73746278 25.85181361 -173.27227235 25.31377161 C-148.9211433 16.46881859 -123.56453079 10.36908213 -98.04863954 6.0042013 C-96.75667665 5.7778097 -95.46471376 5.5514181 -94.13360048 5.31816615 C-62.92738771 0.127404 -31.53700878 -0.06132234 0 0 Z " fill="#F9E000" transform="translate(485.17363954056054,-0.37920130137354136)"/>
<path d="M0 0 C2.64574917 -0.00194158 5.29147772 -0.0070437 7.93722153 -0.01256943 C51.90433426 -0.08062053 95.192685 2.86607172 138.76037216 8.74802017 C139.84756546 8.89323105 140.93475876 9.03844193 142.05489731 9.18805313 C155.02099317 10.93047379 167.7867216 13.04743235 180.55700302 15.88733292 C183.23161977 16.46677471 185.91796914 16.96276131 188.61193466 17.44333267 C217.03406483 22.52198281 245.26579848 29.45236176 272.71447372 38.40890884 C275.75248116 39.38859462 278.80139659 40.32696166 281.85412216 41.25973892 C367.1252193 67.41759836 447.75073528 107.80686549 535.51037216 173.31052017 C536.14684677 173.82082779 536.78332138 174.33113541 537.4390831 174.85690689 C551.64722848 186.26017438 565.3790188 198.0307592 578.62365341 210.5414772 C580.47857107 212.28070253 582.35022243 213.99960403 584.22912216 215.71286392 C593.13484448 223.85928332 601.47159621 232.42889365 609.65295029 241.30026627 C611.38312402 243.17280182 613.12392365 245.03461559 614.86974716 246.89255142 C621.03967001 253.47764664 626.86333513 260.27017825 632.51037216 267.31052017 C633.49313866 268.50325359 634.47762147 269.69457418 635.46349716 270.88473892 C670.88275125 313.75867483 699.55263707 361.83082498 720.51037216 413.31052017 C721.00537216 414.51361832 721.50037216 415.71671646 722.01037216 416.95627213 C725.4800124 425.44696945 728.57388743 434.01321573 731.38537216 442.74802017 C731.59525772 443.39761703 731.80514328 444.0472139 732.02138901 444.71649551 C736.95220328 460.051168 740.89677921 475.61738558 744.51037216 491.31052017 C744.76834579 492.42410904 745.02631943 493.53769791 745.29211044 494.68503189 C756.12969836 543.18376458 758.03329858 595.01905009 752.51037216 644.31052017 C752.41385361 645.27199966 752.31733505 646.23347916 752.21789169 647.22409439 C750.48323352 664.47667988 747.20643603 681.38016311 743.51037216 698.31052017 C743.29042587 699.33049088 743.07047958 700.35046158 742.84386826 701.40134048 C729.2096433 763.43234085 700.52971085 823.32304144 664.51037216 875.31052017 C664.08981552 875.91863541 663.66925888 876.52675064 663.2359581 877.15329361 C653.61759836 890.99063299 643.32894228 904.39254222 632.51037216 917.31052017 C632.09078232 917.81502701 631.67119247 918.31953384 631.23888779 918.83932877 C624.97341915 926.36932447 618.51670622 933.68100334 611.85021591 940.85739517 C610.56858925 942.24738094 609.30464511 943.65360853 608.04162216 945.06052017 C602.15388743 951.60244766 596.03649624 957.88963418 589.82287216 964.12302017 C589.02687607 964.92360855 588.23087997 965.72419693 587.41076279 966.54904556 C583.18514047 970.7636911 578.88127124 974.8163304 574.35729599 978.70871353 C571.56830702 981.12755776 568.89028716 983.660452 566.19787216 986.18552017 C560.49557953 991.48421272 554.58397556 996.44047861 548.51037216 1001.31052017 C547.32941119 1002.28162983 546.14980467 1003.25438816 544.97130966 1004.22848892 C502.37639869 1039.34440582 455.53387899 1068.13003923 406.51037216 1093.31052017 C405.59739365 1093.78135025 404.68441513 1094.25218033 403.7437706 1094.73727798 C355.84487757 1119.36852856 303.568128 1139.71636805 251.26037216 1152.81052017 C248.91779472 1153.40506216 246.57534866 1154.00012199 244.23302841 1154.59567642 C243.09236923 1154.88458755 241.95171005 1155.17349869 240.77648544 1155.4711647 C237.84545497 1156.22440755 234.92477555 1157.00575058 232.00646591 1157.80661392 C165.11346923 1176.07765482 95.23479512 1183.47623054 26.07287216 1184.93552017 C24.49836792 1184.969207 24.49836792 1184.969207 22.89205551 1185.00357437 C3.18688225 1185.40677874 -16.46545321 1185.19944281 -36.15756607 1184.40246964 C-38.62292231 1184.30526458 -41.08855735 1184.21960553 -43.5543251 1184.13351822 C-56.97015278 1183.63108072 -70.29362217 1182.52997599 -83.65198135 1181.20871353 C-87.07963425 1180.87030449 -90.50815056 1180.5419788 -93.93689346 1180.21481705 C-105.38839336 1179.10827622 -116.74226954 1177.89402226 -128.06824112 1175.8437233 C-134.8178924 1174.7991871 -139.36942951 1178.43546464 -144.57117081 1182.21506119 C-146.05125326 1183.30785596 -147.52949627 1184.40314496 -149.0062294 1185.50046158 C-153.72479902 1188.93965497 -158.58807929 1192.16926514 -163.42712784 1195.43552017 C-165.59294053 1196.90621465 -167.75829931 1198.37757779 -169.92322159 1199.84958267 C-171.01102921 1200.58853775 -172.09883682 1201.32749283 -173.21960831 1202.08884048 C-178.47742749 1205.66104853 -183.73346152 1209.23588076 -188.98962784 1212.81052017 C-191.07295208 1214.2272002 -193.15628543 1215.64386685 -195.23962784 1217.06052017 C-196.27087784 1217.76177017 -197.30212784 1218.46302017 -198.36462784 1219.18552017 C-218.1562945 1232.64385351 -237.94796117 1246.10218684 -257.73962784 1259.56052017 C-258.77063614 1260.26160904 -259.80164444 1260.96269791 -260.86389542 1261.68503189 C-262.94965805 1263.10334397 -265.03543281 1264.5216382 -267.12121964 1265.9399147 C-272.2924837 1269.45626133 -277.46354456 1272.97290599 -282.63415909 1276.49020767 C-294.17345157 1284.33926956 -305.71753121 1292.18121683 -317.26654434 1300.01596451 C-329.68077415 1308.43787776 -342.08612499 1316.87281693 -354.48962784 1325.31052017 C-361.72290724 1330.23108704 -368.95666599 1335.15094645 -376.19177628 1340.06882095 C-378.46859954 1341.61648095 -380.74529933 1343.1643213 -383.0218544 1344.71237564 C-389.56892318 1349.16384782 -396.11960067 1353.60987151 -402.67711258 1358.04594803 C-406.09753249 1360.36162627 -409.50580334 1362.69415115 -412.90759659 1365.03708267 C-414.47647382 1366.10759039 -416.04547339 1367.17791884 -417.61462784 1368.24802017 C-418.28163712 1368.71377457 -418.94864639 1369.17952896 -419.63586807 1369.65939713 C-427.10008506 1374.7160466 -435.2938986 1378.74018249 -444.48962784 1377.31052017 C-449.70403208 1375.53959043 -451.81583453 1373.06393049 -454.48962784 1368.31052017 C-460.14293128 1351.35060984 -451.90875915 1330.84287628 -447.48962784 1314.31052017 C-447.14214632 1313.00149975 -446.79489445 1311.69241834 -446.44787979 1310.38327408 C-444.65164036 1303.62354854 -442.8325293 1296.87012753 -441.00476456 1290.11886978 C-438.22452045 1279.84508868 -435.51125182 1269.55702992 -432.86462784 1259.24802017 C-430.85651871 1251.430994 -428.75601383 1243.66856057 -426.40320206 1235.94894791 C-423.99840318 1227.90918367 -422.08019615 1219.74241036 -420.07556534 1211.59592056 C-418.35262201 1204.63625952 -416.50586793 1197.75346288 -414.40369034 1190.90036392 C-411.98742696 1182.88276271 -410.07787718 1174.73344519 -408.0777626 1166.60446548 C-406.33103387 1159.54907004 -404.45875218 1152.5685287 -402.33337784 1145.61911392 C-400.50718136 1139.56760009 -398.99573165 1133.44851358 -397.48962784 1127.31052017 C-395.68810756 1119.97575906 -393.81631799 1112.67973934 -391.67712784 1105.43552017 C-391.47023331 1104.73427017 -391.26333878 1104.03302017 -391.05017471 1103.31052017 C-390.32250896 1100.88986777 -389.62231535 1098.5758952 -388.48962784 1096.31052017 C-389.37215225 1096.03304947 -390.25467667 1095.75557877 -391.16394424 1095.46969986 C-394.1760445 1094.41982084 -396.87029487 1093.22289607 -399.70056534 1091.76364517 C-400.68581192 1091.25567398 -401.6710585 1090.74770279 -402.68616104 1090.22433853 C-404.25950211 1089.40074844 -404.25950211 1089.40074844 -405.86462784 1088.56052017 C-407.51434586 1087.69922501 -407.51434586 1087.69922501 -409.19739151 1086.82052994 C-419.89017404 1081.18531985 -430.32861726 1075.15347028 -440.70837784 1068.96432877 C-443.29436175 1067.42663082 -445.88987895 1065.90682209 -448.48962784 1064.39255142 C-469.2256109 1052.23979394 -489.23878576 1038.69356347 -508.48962784 1024.31052017 C-509.06777237 1023.87868423 -509.6459169 1023.4468483 -510.24158096 1023.00192642 C-527.31331078 1010.18315385 -543.9067015 996.55455437 -559.54040909 982.01364517 C-561.724813 979.9889842 -563.96056872 978.03487224 -566.21667862 976.09054947 C-570.2334701 972.58026045 -574.04122826 968.90412713 -577.80603409 965.12692642 C-578.46619019 964.46772705 -579.12634628 963.80852768 -579.80650711 963.12935257 C-581.1899829 961.74655182 -582.57221867 960.36250942 -583.95325089 958.97726822 C-586.04694453 956.87821674 -588.14592658 954.78456077 -590.24548721 952.69137955 C-591.59932355 951.33688231 -592.95284959 949.98207486 -594.30603409 948.62692642 C-594.92289581 948.01208893 -595.53975754 947.39725143 -596.17531204 946.7637825 C-600.47618069 942.44010183 -604.51283861 937.93235414 -608.48962784 933.31052017 C-609.51192107 932.14285071 -610.53518242 930.9760272 -611.55994034 929.81052017 C-656.28949914 878.6620122 -692.16193929 820.21701653 -715.48962784 756.31052017 C-715.90454483 755.19403091 -716.31946182 754.07754166 -716.74695206 752.92721939 C-722.15190161 738.31660797 -726.65399776 723.66447124 -730.42712784 708.56052017 C-730.61276291 707.82110184 -730.79839798 707.0816835 -730.98965836 706.31985855 C-734.45550743 692.40562798 -736.98050459 678.37318428 -739.05212784 664.18552017 C-739.17579727 663.33973404 -739.29946671 662.49394791 -739.4268837 661.62253189 C-739.67164277 659.94122656 -739.91526751 658.25975559 -740.15759659 656.5780983 C-740.44170069 654.63783442 -740.74497816 652.70039454 -741.05212784 650.76364517 C-746.93240095 611.62307727 -745.60144775 571.59620051 -740.75525284 532.46170425 C-740.51001643 530.47563875 -740.27289101 528.48857621 -740.03650284 526.50143814 C-734.16374211 478.11233669 -718.73906575 431.48303214 -698.48962784 387.31052017 C-698.0774501 386.40108658 -697.66527237 385.49165298 -697.2406044 384.5546608 C-678.17646638 342.61662954 -651.93583601 303.63841725 -622.48962784 268.31052017 C-622.00896866 267.73076431 -621.52830948 267.15100845 -621.03308487 266.55368423 C-614.90635817 259.17285021 -608.56903653 252.0298702 -602.03918839 245.00363541 C-600.87311425 243.72953361 -599.72057748 242.44302196 -598.57483292 241.15060806 C-592.91963322 234.77935064 -587.02984039 228.69583855 -580.99621964 222.68674088 C-579.42188629 221.11779657 -577.85301194 219.54353459 -576.28454971 217.9687233 C-571.38746494 213.0684102 -566.45030052 208.26265782 -561.18176651 203.75754166 C-558.78969172 201.71197431 -556.48883172 199.57105999 -554.17712784 197.43552017 C-549.7660961 193.41671424 -545.25227426 189.58186694 -540.60681534 185.83786392 C-538.27724842 183.96004101 -535.97705387 182.050279 -533.68494034 180.12692642 C-523.26516903 171.40569519 -512.53655305 163.22036519 -501.48962784 155.31052017 C-500.26904678 154.4362941 -500.26904678 154.4362941 -499.02380753 153.54440689 C-469.82225995 132.70998254 -439.3553683 113.78932197 -407.48962784 97.31052017 C-406.8646138 96.98587784 -406.23959976 96.6612355 -405.5956459 96.32675552 C-383.6034013 84.90668882 -361.2264898 74.64495427 -338.36279678 65.09378433 C-336.70416937 64.40023055 -335.04743805 63.70214607 -333.39099503 63.00339127 C-318.36676343 56.68306174 -302.94346676 51.47033029 -287.48962784 46.31052017 C-286.51301193 45.98380325 -286.51301193 45.98380325 -285.51666641 45.65048599 C-270.19992119 40.5318714 -254.87535354 35.64049128 -239.18884659 31.75973892 C-235.17785873 30.76659164 -231.20554118 29.66917616 -227.23230362 28.53706741 C-217.45282699 25.76021828 -207.63316561 23.47953536 -197.67712784 21.43552017 C-196.46848068 21.18505936 -196.46848068 21.18505936 -195.23541641 20.92953873 C-189.32385358 19.70468656 -183.40767333 18.50360367 -177.48962784 17.31052017 C-176.684991 17.14749405 -175.88035416 16.98446793 -175.05133438 16.81650162 C-152.94037013 12.34039743 -130.91668654 8.76270151 -108.48962784 6.31052017 C-106.15757841 6.04375199 -103.82554672 5.77682863 -101.49353409 5.50973892 C-95.46859429 4.83480582 -89.43838809 4.24245361 -83.40173721 3.68259048 C-80.1079559 3.36932771 -76.81879908 3.02642832 -73.52887344 2.67563248 C-49.06456983 0.1346489 -24.56921694 0.01378306 0 0 Z " fill="#371D1D" transform="translate(1030.4896278381348,394.68947982788086)"/>
<path d="M0 0 C1.02996094 0.45761719 2.05992187 0.91523437 3.12109375 1.38671875 C19.69863502 9.59676294 24.41358763 24.57590708 30.6875 40.8125 C31.01958466 41.66768219 31.35166931 42.52286438 31.69381714 43.40396118 C51.35790614 94.0526059 70.16823788 145.03749802 89 196 C89.37648682 197.01878235 89.75297363 198.0375647 90.14086914 199.08721924 C92.85647048 206.43613567 95.57196031 213.78509407 98.28518677 221.1348877 C103.10580084 234.19327902 107.9450611 247.24469079 112.79296875 260.29296875 C113.08952173 261.09117664 113.38607471 261.88938454 113.69161415 262.71178055 C116.68218512 270.76101335 119.67352394 278.80996015 122.66640949 286.85833263 C123.78411745 289.86427364 124.9014501 292.87035408 126.01871681 295.87645912 C126.54445473 297.29068277 127.07038072 298.70483651 127.5965023 300.11891747 C128.32129547 302.06698563 129.04548072 304.01527876 129.76953125 305.96362305 C130.17792236 307.06175827 130.58631348 308.15989349 131.00708008 309.29130554 C133.81377747 316.94800122 133.96098853 324.0867801 131.03125 331.77734375 C125.22400626 344.29371379 115.07415828 351.26160147 102.37890625 355.97265625 C91.26708665 359.44006004 80.47710298 359.26306889 70 354 C59.77703202 348.09339628 56.25152997 338.89655677 52.5 328.125 C52.11271729 327.02526855 51.72543457 325.92553711 51.32641602 324.79248047 C49.06199647 318.2784228 46.8708385 311.74552666 44.9375 305.125 C44.73382812 304.4561377 44.53015625 303.78727539 44.3203125 303.09814453 C42.64349826 297.02874045 43 292.79193096 43 286 C-3.53 286 -50.06 286 -98 286 C-98.33 288.64 -98.66 291.28 -99 294 C-99.28213654 295.31429187 -99.59451679 296.62349275 -99.96801758 297.91479492 C-100.1552388 298.572957 -100.34246002 299.23111908 -100.53535461 299.90922546 C-100.7363829 300.59273575 -100.93741119 301.27624603 -101.14453125 301.98046875 C-101.35559006 302.71517899 -101.56664886 303.44988922 -101.78410339 304.2068634 C-102.45464728 306.53539923 -103.13354113 308.8614058 -103.8125 311.1875 C-104.25638317 312.72706262 -104.69974636 314.26677526 -105.14257812 315.80664062 C-106.21282065 319.51899715 -107.29703428 323.22702834 -108.39077759 326.93252563 C-108.78740061 328.27851673 -109.18186192 329.62514732 -109.57382202 330.97250366 C-110.09500781 332.76215879 -110.62538247 334.54913036 -111.15625 336.3359375 C-111.44951172 337.33028809 -111.74277344 338.32463867 -112.04492188 339.34912109 C-114.91434204 347.31337574 -120.70551715 352.07518091 -128 356 C-138.73572128 360.54203593 -150.56218377 358.17772944 -161 354 C-172.60365528 348.9368666 -180.07768669 341.61019816 -186.00390625 330.48046875 C-188.83420066 320.59108711 -186.61411268 312.34711328 -182.73245239 303.08526611 C-181.90243023 301.10377899 -181.09895768 299.11307073 -180.30053711 297.11865234 C-179.14029315 294.22440158 -177.97121834 291.33396081 -176.79589844 288.44580078 C-173.79306724 281.04137327 -170.92959974 273.58277779 -168.0625 266.125 C-167.75617645 265.32992035 -167.44985291 264.5348407 -167.13424683 263.71566772 C-155.49697741 233.48721016 -144.46490563 203.02673756 -133.38671875 172.58984375 C-131.48739443 167.37224459 -129.58774863 162.15476261 -127.6875 156.9375 C-127.45146309 156.28940495 -127.21542618 155.64130989 -126.97223663 154.97357559 C-116.80688496 127.06720688 -106.42957781 99.2420316 -95.94252014 71.45506287 C-93.56037869 65.14304394 -91.18482533 58.82872125 -88.82485962 52.50837708 C-87.64794641 49.35998459 -86.46423482 46.2141869 -85.27813721 43.06924438 C-84.77714091 41.73698091 -84.27883689 40.4037003 -83.78387451 39.06918335 C-81.16122839 32.00426138 -78.22518733 25.16759675 -74.890625 18.4140625 C-74.56179321 17.7435083 -74.23296143 17.0729541 -73.89416504 16.38208008 C-68.19951573 5.11015264 -59.52254198 0.19595324 -47.96875 -4.13671875 C-33.01278842 -8.15773292 -14.0233796 -6.3347567 0 0 Z " fill="#F9E000" transform="translate(908,811)"/>
<path d="M0 0 C6.29383947 4.3794633 10.12921666 9.14538136 11.625 16.75 C11.92112004 20.35050001 11.93599989 23.93919185 11.94384766 27.55053711 C11.95389328 28.61469849 11.9639389 29.67885986 11.97428894 30.77526855 C12.00506188 34.27595504 12.02213991 37.77656523 12.0390625 41.27734375 C12.05777886 43.71115268 12.07735262 46.14495516 12.0977478 48.57875061 C12.14902542 54.97209869 12.18867468 61.3654678 12.22589111 67.75891113 C12.26595805 74.28789452 12.31703816 80.81679077 12.3671875 87.34570312 C12.46389511 100.14707307 12.54869073 112.94849304 12.625 125.75 C13.28006877 125.09308764 13.93513754 124.43617529 14.61005688 123.7593565 C30.54528762 107.77973806 46.4862743 91.80587957 62.43332195 75.8380537 C70.14503933 68.11602122 77.85487164 60.39212404 85.56030273 52.66381836 C92.27590135 45.92829312 98.99500129 39.19628398 105.71833926 32.46848375 C109.27856889 28.90564552 112.83701353 25.34106455 116.39127159 21.7722683 C119.73655424 18.4134133 123.08649782 15.05927888 126.44007683 11.70870781 C127.67011694 10.47811739 128.89844347 9.24581139 130.12491989 8.01166916 C131.80013921 6.32649419 133.48142395 4.64760961 135.16435242 2.97013855 C135.64782959 2.48083569 136.13130677 1.99153283 136.62943476 1.48740262 C140.71889412 -2.56633152 144.39164981 -5.67771347 150.3125 -5.6875 C163.71513319 -5.15376682 175.19267165 4.50857294 184.078125 13.921875 C191.21702908 22.35876163 198.26786502 32.23162485 198.09375 43.6796875 C196.69559193 49.85488566 191.74152477 53.83178259 187.375 58.0625 C186.00465439 59.40957284 184.6361357 60.75850691 183.26953125 62.109375 C182.65698486 62.70975586 182.04443848 63.31013672 181.41333008 63.92871094 C179.00410552 66.38233758 176.77326851 68.96880855 174.55859375 71.59765625 C171.11888014 75.42650918 167.40427894 78.9892239 163.74682617 82.60864258 C160.10739649 86.22470201 156.64328915 89.91020373 153.328125 93.828125 C150.39121452 97.14225334 147.18805586 100.19374844 144.0390625 103.3046875 C141.33748706 106.04123479 138.83421265 108.89979366 136.3359375 111.8203125 C133.88048723 114.58970162 131.23403661 117.15035124 128.59765625 119.74609375 C126.05162171 122.33246151 123.70478443 125.0653528 121.33984375 127.81640625 C119.66495701 129.70494597 117.92552413 131.48155648 116.125 133.25 C113.16776334 136.16153985 110.44229293 139.2088871 107.734375 142.3515625 C103.13694151 147.57901466 98.36109513 152.64839342 93.625 157.75 C95.15456614 162.52764483 97.84584402 165.77292424 101 169.5625 C105.23727182 174.75513503 109.37628741 179.99631546 113.375 185.375 C118.08258617 191.6995942 122.83947599 197.98414335 127.625 204.25 C132.38096565 210.48025331 137.11959382 216.72209855 141.8125 223 C147.4317469 230.51465776 153.13071362 237.96668795 158.83740234 245.41503906 C171.45304841 261.89360216 183.9767314 278.43579972 196.3125 295.125 C196.92561035 295.95273926 197.5387207 296.78047852 198.17041016 297.63330078 C198.73679199 298.4014209 199.30317383 299.16954102 199.88671875 299.9609375 C200.39162842 300.64462402 200.89653809 301.32831055 201.41674805 302.03271484 C205.08300393 307.24355418 204.25262462 313.64948872 203.625 319.75 C199.68939578 332.84717472 188.25956082 344.11135685 176.625 350.75 C165.86159591 356.28906176 155.54400377 360.04790254 143.28125 357.20703125 C137.00553915 354.55479631 133.49051599 349.11986232 129.625 343.75 C128.65783844 342.42036458 127.69036894 341.09095311 126.72265625 339.76171875 C124.51008969 336.71243577 122.30907305 333.6551302 120.11328125 330.59375 C116.67427678 325.80636236 113.18851032 321.05466625 109.6875 316.3125 C109.10734131 315.52633301 108.52718262 314.74016602 107.92944336 313.93017578 C106.16199694 311.53626481 104.39366323 309.14301208 102.625 306.75 C95.20378505 296.70905114 87.81328194 286.64933596 80.51708984 276.51708984 C74.86781917 268.68122514 69.13187108 260.91007146 63.39111328 253.14111328 C60.46543898 249.18008838 57.54549572 245.21484373 54.625 241.25 C53.47659032 239.69138575 52.3281527 238.13279209 51.1796875 236.57421875 C45.328125 228.6328125 39.4765625 220.69140625 33.625 212.75 C32.80566483 213.30279129 31.98632965 213.85558258 31.14216614 214.42512512 C29.33896031 215.63985113 27.53422716 216.80294966 25.65575218 217.89870262 C19.62633379 221.44764652 13.14315805 225.42442465 10.72925186 232.30218887 C9.35796134 239.67231347 9.76806851 247.12667537 10.01953125 254.58203125 C10.03966826 256.98804088 10.0519614 259.39412766 10.05680847 261.80021667 C10.08707992 268.10401611 10.20853559 274.40252618 10.35424805 280.70458984 C10.57220787 290.80488636 10.65012535 300.90718192 10.72855186 311.0093441 C10.76889768 314.52679487 10.84801537 318.04169572 10.93354797 321.55830383 C10.96663562 323.7196031 10.99899755 325.88091363 11.03051758 328.04223633 C11.06427994 329.01228104 11.0980423 329.98232574 11.13282776 330.98176575 C11.18927822 337.53350227 9.76240166 341.64512784 5.625 346.75 C-2.91938613 355.43082343 -15.57526975 357.93917991 -27.32958984 358.13012695 C-40.81975057 358.10538517 -54.03830958 357.03184377 -64.15625 346.98046875 C-67.70710452 343.00250673 -69.49915962 340.08980666 -69.50198364 334.6320343 C-69.50480756 333.78674258 -69.50763147 332.94145086 -69.51054096 332.07054424 C-69.50851264 331.13887841 -69.50648432 330.20721258 -69.50439453 329.24731445 C-69.50611003 328.25406316 -69.50782553 327.26081186 -69.50959301 326.23746204 C-69.51397229 322.86271946 -69.51092634 319.48802471 -69.5078125 316.11328125 C-69.50904577 313.66022727 -69.51061718 311.20717344 -69.51249695 308.75411987 C-69.51612734 301.24123172 -69.51036958 293.72837423 -69.50225878 286.21549177 C-69.50000916 284.07123421 -69.49803465 281.92697657 -69.49615097 279.78271866 C-69.4800068 261.58112158 -69.44913104 243.37957329 -69.41097987 225.17801011 C-69.38245285 211.44419823 -69.36641343 197.71040452 -69.35559416 183.9765681 C-69.33904753 163.17063619 -69.30223994 142.36485171 -69.2396965 121.55900478 C-69.20735063 110.65215836 -69.18329021 99.7454289 -69.17999268 88.83853149 C-69.17704819 79.44561545 -69.15680604 70.05293071 -69.11467606 60.66010547 C-69.09343793 55.80774213 -69.08043145 50.95570843 -69.08881187 46.10329819 C-69.09632019 41.62004792 -69.08067483 37.13748512 -69.04693198 32.65436113 C-69.03872433 31.02587357 -69.03893316 29.39731732 -69.04840493 27.76883662 C-69.10035264 17.86918362 -68.49531177 11.15117275 -61.5234375 3.796875 C-45.29214438 -8.07270499 -17.5556472 -9.88728829 0 0 Z " fill="#F9E000" transform="translate(1365.375,811.25)"/>
<path d="M0 0 C1.54845014 0.00262687 3.09690287 0.00396739 4.64535522 0.00416565 C8.97606767 0.00896512 13.30648072 0.03344454 17.63709641 0.0616188 C21.36350265 0.08386231 25.08991467 0.09611251 28.81636524 0.10833073 C38.62668818 0.14050222 48.43685571 0.18995446 58.24707031 0.24560547 C70.15263728 0.31227427 82.05816918 0.35612306 93.96386719 0.39111328 C110.11413555 0.43867885 126.26431577 0.49781798 142.41449261 0.57026482 C144.23359356 0.57839294 146.05269457 0.58650616 147.87179565 0.59460449 C148.77150544 0.59861271 149.67121522 0.60262093 150.59818894 0.60675061 C156.96422085 0.63443898 163.33025421 0.65525434 169.69631958 0.67346191 C177.56384301 0.69616953 185.43123629 0.72975032 193.29865527 0.7764253 C197.38147878 0.8003601 201.46417761 0.81945086 205.54706955 0.82580757 C209.33714229 0.8318646 213.12688951 0.85184327 216.91684139 0.88241625 C218.94268155 0.89525412 220.96859765 0.89361868 222.99447727 0.89139938 C234.49866455 1.00937085 244.69691452 2.99764438 253.25 11.1484375 C261.78209858 20.38701558 264.88339093 30.47657719 264.65234375 42.953125 C263.72441577 52.97474722 259.54874537 62.37048765 252.234375 69.33203125 C244.86929546 75.40410199 237.95732577 77.79973633 228.53710938 77.66870117 C227.69713409 77.66913925 226.85715881 77.66957733 225.99172974 77.67002869 C223.24293963 77.66795534 220.49477598 77.64469374 217.74609375 77.62109375 C215.82938978 77.61549261 213.91268149 77.61122496 211.99597168 77.60823059 C206.97192348 77.59682259 201.94813896 77.56739047 196.92419434 77.53411865 C191.78934291 77.50333027 186.65444854 77.48970657 181.51953125 77.47460938 C171.45952011 77.4425167 161.39970393 77.39136961 151.33984375 77.328125 C151.34212207 78.15774881 151.34212207 78.15774881 151.34444642 79.00413269 C151.43399238 111.79689177 151.50260696 144.58962015 151.54410507 177.38247412 C151.54910779 181.32147058 151.55428509 185.2604668 151.55957031 189.19946289 C151.56061955 189.98363378 151.5616688 190.76780467 151.56274983 191.57573832 C151.58014686 204.26672148 151.61168067 216.95763203 151.64845493 229.64857214 C151.68588392 242.67426401 151.70808374 255.6999179 151.71619773 268.72566134 C151.72168145 276.76085628 151.73899043 284.79584599 151.77150962 292.83097775 C151.79518748 298.99621612 151.79765864 305.1612986 151.79227448 311.32657623 C151.79337451 313.85291112 151.80132563 316.37925382 151.81666565 318.90554237 C151.83659905 322.3577586 151.83176974 325.80910035 151.82086182 329.26133728 C151.83833887 330.75699302 151.83833887 330.75699302 151.85616899 332.28286403 C151.79188988 339.82161268 150.11697266 345.88643023 145.33203125 351.81640625 C140.01769047 356.39536777 135.05555097 359.28655001 128.33984375 361.328125 C127.33244141 361.66457031 127.33244141 361.66457031 126.3046875 362.0078125 C113.01594305 365.74607202 96.88535448 364.08033766 84.6171875 357.97265625 C78.16954166 353.95767812 72.6108342 348.71177866 70.33984375 341.328125 C70.04503189 337.74921072 70.07892149 334.17971897 70.09933472 330.59049988 C70.09762587 329.49591927 70.09591702 328.40133867 70.09415638 327.27358896 C70.09085741 323.59923723 70.10187208 319.92506738 70.11279297 316.25073242 C70.11335699 313.61948653 70.11304069 310.98824033 70.11190796 308.35699463 C70.11085953 302.68869831 70.11713173 297.02044805 70.12838364 291.35216331 C70.14464137 283.15679368 70.14984692 274.96144631 70.15235962 266.7660623 C70.15673629 253.46943581 70.17004465 240.17283387 70.18896484 226.8762207 C70.20732436 213.96020633 70.22148051 201.04419862 70.22998047 188.12817383 C70.23050592 187.33195963 70.23103136 186.53574542 70.23157273 185.71540352 C70.23418282 181.72100971 70.23671023 177.72661585 70.23919654 173.73222196 C70.25992818 140.5975051 70.29515296 107.46281834 70.33984375 74.328125 C68.75370018 74.34144867 68.75370018 74.34144867 67.13551331 74.3550415 C57.14611524 74.43630274 47.15678468 74.49617444 37.16713047 74.53537369 C32.03193393 74.5562043 26.89700528 74.58443905 21.76196289 74.62988281 C16.80174583 74.67350223 11.84178566 74.69729612 6.88139153 74.70763397 C4.99364112 74.71499651 3.10590399 74.72937368 1.21826363 74.75104523 C-11.54878359 74.89172543 -20.945911 74.56862407 -30.8046875 65.37890625 C-39.56373966 55.69784859 -41.27040416 45.07627109 -40.97265625 32.53125 C-40.44040221 22.64019567 -36.04542488 14.24413785 -28.77734375 7.609375 C-19.68923291 0.33888633 -11.29117408 -0.10110116 0 0 Z " fill="#F9E000" transform="translate(519.66015625,803.671875)"/>
<path d="M0 0 C7.41224888 5.37488572 11.49725941 11.4100755 14.125 20.1875 C14.63574564 23.84253314 14.65043405 27.42268405 14.60601807 31.10879517 C14.60943577 32.16272882 14.61285347 33.21666247 14.61637473 34.30253351 C14.62292683 37.8095565 14.60102098 41.31580225 14.57910156 44.82275391 C14.57797251 47.34636416 14.57860807 49.86997572 14.58087158 52.39358521 C14.58178041 57.81414175 14.57048662 63.23445111 14.54792023 68.65495682 C14.51531521 76.49189468 14.50498456 84.32873958 14.49996826 92.16573791 C14.49122888 104.8828431 14.46465031 117.59984524 14.42675781 130.31689453 C14.39000248 142.66519661 14.361708 155.01347062 14.34472656 167.36181641 C14.34315022 168.50488186 14.34315022 168.50488186 14.34154204 169.67103954 C14.33632162 173.49425526 14.33126685 177.31747118 14.32629442 181.14068723 C14.28487469 212.82303371 14.21416461 244.50525079 14.125 276.1875 C14.71252576 276.18732651 15.30005152 276.18715303 15.90538108 276.18697429 C22.11211129 276.18522364 28.31884143 276.18405843 34.52557182 276.18320847 C36.83101975 276.18281957 39.13646766 276.18228951 41.44191551 276.18160629 C75.86114986 276.17167379 75.86114986 276.17167379 92.66503906 276.39501953 C95.13012608 276.42422991 97.59532422 276.44491273 100.06054688 276.45849609 C103.77259674 276.47979164 107.48358218 276.5260948 111.1953125 276.578125 C112.28772247 276.57935364 113.38013245 276.58058228 114.50564575 276.58184814 C121.92155634 276.72531997 127.24899004 277.93165164 133.078125 282.828125 C142.62850317 294.67979912 145.30803547 308.11179124 144.125 323.1875 C142.52010578 333.13086633 139.08473271 343.50132452 131.125 350.1875 C123.45214213 355.33399567 115.45629964 354.75326348 106.5546875 354.70507812 C104.87192175 354.71050389 103.18916075 354.7176291 101.50640869 354.72631836 C96.95265224 354.74450069 92.39925967 354.73750531 87.84549713 354.72480202 C83.0713048 354.71464791 78.29714282 354.72407438 73.52294922 354.73034668 C65.50677926 354.73761607 57.4907569 354.72805399 49.47460938 354.70898438 C40.21774657 354.687217 30.96123621 354.69426887 21.70438194 354.71629 C13.74489521 354.73446419 5.78551435 354.73699245 -2.17398643 354.72653532 C-6.92271066 354.72031149 -11.67126943 354.71943414 -16.41998291 354.73268127 C-20.88530152 354.74426859 -25.35016741 354.73616166 -29.81543732 354.71310425 C-31.45043436 354.7078325 -33.08546976 354.70930458 -34.72045135 354.71815491 C-44.61064635 354.76674011 -51.70618706 354.51487827 -59.5625 347.9375 C-68.34873526 337.48900401 -70.33339882 326.85068585 -70.26268005 313.39770508 C-70.26806559 312.15466771 -70.27345113 310.91163034 -70.27899987 309.63092518 C-70.29076164 306.21076552 -70.28924141 302.79109804 -70.28183305 299.37095881 C-70.27707893 295.67081649 -70.28963085 291.97072506 -70.29985046 288.27059937 C-70.31699913 281.03397761 -70.3178868 273.79744283 -70.31263756 266.56080604 C-70.30858785 260.67680975 -70.3100489 254.79283907 -70.31538582 248.90884399 C-70.31650845 247.65027878 -70.31650845 247.65027878 -70.31765376 246.36628801 C-70.31918531 244.66151992 -70.32072366 242.95675184 -70.32226873 241.25198376 C-70.33597914 225.28520734 -70.330566 209.31848 -70.31908352 193.35170472 C-70.30914916 178.75836975 -70.3220979 164.16516154 -70.34601771 149.57184613 C-70.3704238 134.56825694 -70.38001309 119.56472676 -70.37336498 104.56111813 C-70.36987657 96.14533233 -70.37208003 87.72964403 -70.38961601 79.31387329 C-70.40435674 72.15111022 -70.40494888 64.98851333 -70.3875451 57.82575345 C-70.37904871 54.17467976 -70.37685193 50.52390271 -70.39219666 46.8728447 C-70.4086554 42.90751061 -70.39386038 38.94263131 -70.37620544 34.97729492 C-70.38581045 33.83399121 -70.39541546 32.6906875 -70.40531152 31.51273823 C-70.30220865 20.22922092 -67.31547139 11.5774201 -59.44140625 3.41796875 C-43.37095665 -10.54889079 -17.74392348 -10.90359713 0 0 Z " fill="#F9E000" transform="translate(1134.875,812.8125)"/>
<path d="M0 0 C0.66 0 1.32 0 2 0 C11.65099421 29.88743668 21.24161854 59.79056611 30.60742188 89.76879883 C30.91455109 90.75163345 31.2216803 91.73446808 31.53811646 92.74708557 C32.13743726 94.66586569 32.73614831 96.58483638 33.334198 98.50401306 C34.869627 103.42283354 36.42556411 108.3341138 38.01025391 113.23730469 C38.33645218 114.24965179 38.66265045 115.2619989 38.99873352 116.30502319 C39.62320235 118.23937216 40.25127175 120.17256359 40.88346863 122.10440063 C41.16144791 122.96633026 41.43942719 123.82825989 41.72583008 124.71630859 C42.09590935 125.85209854 42.09590935 125.85209854 42.47346497 127.01083374 C43 129 43 129 43 132 C13.96 132 -15.08 132 -45 132 C-31.14393939 90.43181818 -31.14393939 90.43181818 -24.125 70.25 C-23.36126151 68.04822841 -22.59767416 65.84640439 -21.83422852 63.64453125 C-18.16336901 53.06421838 -14.47561524 42.4898999 -10.76953125 31.921875 C-10.44063904 30.98377991 -10.11174683 30.04568481 -9.77288818 29.0791626 C-8.2353859 24.6952073 -6.69542096 20.31214419 -5.15087891 15.93066406 C-4.60968233 14.39128244 -4.06850287 12.85189479 -3.52734375 11.3125 C-3.28345413 10.62339539 -3.03956451 9.93429077 -2.7882843 9.2243042 C-1.71791383 6.175225 -0.69991481 3.15736016 0 0 Z " fill="#371D1D" transform="translate(881,894)"/>
</svg>
