<?xml version="1.0" encoding="UTF-8"?>
<svg version="1.1" xmlns="http://www.w3.org/2000/svg" width="200" height="200">
<path d="M0 0 C66 0 132 0 200 0 C200 66 200 132 200 200 C134 200 68 200 0 200 C0 134 0 68 0 0 Z " fill="#FEE500" transform="translate(0,0)"/>
<path d="M0 0 C11.87979362 9.48904677 20.37586479 20.50408066 22.203125 35.95703125 C23.0005937 49.10725813 18.16503008 60.24241874 10.12109375 70.59765625 C3.52199565 77.63162078 -4.67954335 82.13458101 -13.375 86.0625 C-13.99503906 86.34512695 -14.61507812 86.62775391 -15.25390625 86.91894531 C-22.54211464 90.00620614 -30.01022333 91.37598859 -37.9140625 90.94140625 C-56.02889002 90.02364477 -66.37166536 96.57227452 -79.89770508 107.58032227 C-82.25 109.125 -82.25 109.125 -86.25 109.125 C-85.63580826 100.52631562 -83.44092979 92.43015248 -81.25 84.125 C-81.92804688 83.66351563 -82.60609375 83.20203125 -83.3046875 82.7265625 C-94.67097811 74.7607134 -102.8076555 67.03934223 -108.25 54.125 C-108.58902344 53.41472656 -108.92804688 52.70445313 -109.27734375 51.97265625 C-113.27292581 42.96878699 -111.61733413 33.07501966 -108.25 24.125 C-100.53223972 7.02899162 -87.45957079 -2.84320106 -70.328125 -9.46484375 C-47.46398911 -17.60993864 -19.79344354 -14.08895014 0 0 Z " fill="#020101" transform="translate(150.25,53.875)"/>
<path d="M0 0 C0.33 0 0.66 0 1 0 C1 4.29 1 8.58 1 13 C-3.29 13 -7.58 13 -12 13 C-11.319375 12.34 -10.63875 11.68 -9.9375 11 C-6.93093537 8.01066497 -4.19821266 4.80268054 -1.453125 1.57421875 C-0.97359375 1.05472656 -0.4940625 0.53523437 0 0 Z " fill="#ffffff" transform="translate(199,187)"/>
<path d="M0 0 C0.99 1.0209375 0.99 1.0209375 2 2.0625 C4.98933503 5.06906463 8.19731946 7.80178734 11.42578125 10.546875 C11.94527344 11.02640625 12.46476563 11.5059375 13 12 C13 12.33 13 12.66 13 13 C8.71 13 4.42 13 0 13 C0 8.71 0 4.42 0 0 Z " fill="#ffffff" transform="translate(0,187)"/>
<path d="M0 0 C4.62 0 9.24 0 14 0 C14 4.29 14 8.58 14 13 C11.84372484 10.84372484 9.69131 8.68339487 7.5625 6.5 C4.70204505 3.62749241 4.70204505 3.62749241 0 0 Z " fill="#ffffff" transform="translate(186,0)"/>
<path d="M0 0 C3.96 0 7.92 0 12 0 C11.29875 0.680625 10.5975 1.36125 9.875 2.0625 C7.14570239 4.77620162 4.68645559 7.68054724 2.234375 10.64453125 C1.82703125 11.09183594 1.4196875 11.53914062 1 12 C0.67 12 0.34 12 0 12 C0 8.04 0 4.08 0 0 Z " fill="#ffffff" transform="translate(0,0)"/>
<path d="M0 0 C5 5 10 10 15 15 C12.03 14.505 12.03 14.505 9 14 C9 13.01 9 12.02 9 11 C7.02 10.34 5.04 9.68 3 9 C3 8.01 3 7.02 3 6 C2.34 6 1.68 6 1 6 C0.67 4.02 0.34 2.04 0 0 Z " fill="#E8D50E" transform="translate(47,118)"/>
<path d="M0 0 C0.66 0.33 1.32 0.66 2 1 C1.3125 2.9375 1.3125 2.9375 0 5 C-0.721875 5.12375 -1.44375 5.2475 -2.1875 5.375 C-6.4041997 6.31204438 -8.91348916 9.09138604 -12 12 C-12.66 11.67 -13.32 11.34 -14 11 C-9.52692892 6.95834187 -5.11723176 3.19826985 0 0 Z " fill="#241703" transform="translate(67,50)"/>
<path d="M0 0 C0.66 0 1.32 0 2 0 C0.46162154 3.19624262 -1.28866532 6.21605574 -3.125 9.25 C-3.66382813 10.14203125 -4.20265625 11.0340625 -4.7578125 11.953125 C-5.37269531 12.96632813 -5.37269531 12.96632813 -6 14 C-6.66 13.67 -7.32 13.34 -8 13 C-6.44759763 8.03231242 -3.48945219 3.82132943 0 0 Z " fill="#F5E80C" transform="translate(51,60)"/>
<path d="M0 0 C0.66 0.33 1.32 0.66 2 1 C0.49776416 5.20626034 -2.28550034 6.73900021 -6 9 C-6.66 8.34 -7.32 7.68 -8 7 C-5.36 4.69 -2.72 2.38 0 0 Z " fill="#E6C803" transform="translate(12,0)"/>
<path d="M0 0 C2.64 0 5.28 0 8 0 C8.33 0.66 8.66 1.32 9 2 C8.34 2 7.68 2 7 2 C7.33 3.32 7.66 4.64 8 6 C6.66402348 5.19185349 5.331275 4.37836819 4 3.5625 C3.2575 3.11003906 2.515 2.65757812 1.75 2.19140625 C1.1725 1.79824219 0.595 1.40507812 0 1 C0 0.67 0 0.34 0 0 Z " fill="#ffffff" transform="translate(186,0)"/>
<path d="M0 0 C0.99 0.33 1.98 0.66 3 1 C2.21718695 2.33855056 1.42348123 3.67073644 0.625 5 C0.18414062 5.7425 -0.25671875 6.485 -0.7109375 7.25 C-1.34902344 8.11625 -1.34902344 8.11625 -2 9 C-2.66 9 -3.32 9 -4 9 C-2.80100302 5.9168649 -1.52299523 2.93720508 0 0 Z " fill="#EFDF08" transform="translate(168,110)"/>
<path d="M0 0 C1 4 1 4 0 6 C1.98 6.495 1.98 6.495 4 7 C3.67 7.66 3.34 8.32 3 9 C1.68 9 0.36 9 -1 9 C-0.67 6.03 -0.34 3.06 0 0 Z " fill="#38290B" transform="translate(65,154)"/>
<path d="M0 0 C0.99 0.33 1.98 0.66 3 1 C4.1875 3.5625 4.1875 3.5625 5 6 C4.01 6 3.02 6 2 6 C0 3 0 3 0 0 Z " fill="#EAC401" transform="translate(193,6)"/>
</svg>
