<?xml version="1.0" standalone="no"?>
<!DOCTYPE svg PUBLIC "-//W3C//DTD SVG 20010904//EN"
 "http://www.w3.org/TR/2001/REC-SVG-20010904/DTD/svg10.dtd">
<svg version="1.0" xmlns="http://www.w3.org/2000/svg"
 width="512.000000pt" height="512.000000pt" viewBox="0 0 512.000000 512.000000"
 preserveAspectRatio="xMidYMid meet">

<g transform="translate(0.000000,512.000000) scale(0.100000,-0.100000)"
fill="#AAB4C6" stroke="none">
<path d="M4250 4811 c-50 -16 -117 -55 -191 -112 -97 -74 -550 -509 -622 -597
-141 -173 -195 -301 -204 -487 -6 -121 7 -192 54 -298 l26 -58 -34 -33 c-19
-19 -610 -579 -1314 -1246 -704 -667 -1288 -1222 -1299 -1234 -26 -29 -17
-115 19 -187 77 -151 302 -294 387 -247 14 7 591 610 1283 1339 l1258 1326 71
-25 c53 -19 97 -27 174 -30 119 -5 194 7 302 49 160 61 285 166 607 508 354
376 410 501 301 674 -17 26 -34 46 -38 45 -5 -2 -158 -147 -341 -324 -184
-176 -358 -341 -387 -367 -66 -59 -99 -62 -148 -13 -39 39 -43 67 -15 111 10
17 168 204 350 417 182 213 331 394 331 401 0 7 -27 39 -59 71 -54 53 -62 58
-77 45 -10 -8 -193 -164 -408 -348 -215 -183 -402 -337 -415 -342 -53 -21
-121 32 -121 93 0 34 8 47 78 121 44 45 208 217 366 381 157 165 285 305 283
310 -10 36 -161 75 -217 57z"/>
<path d="M350 4624 c-258 -68 -386 -298 -339 -607 22 -143 86 -330 161 -467
232 -425 546 -659 888 -662 98 0 215 24 282 58 28 14 31 14 50 -3 11 -10 153
-159 316 -330 163 -172 298 -313 301 -313 3 1 79 72 169 158 l163 157 -335
318 -335 317 28 63 c42 94 56 161 55 277 -1 163 -47 300 -154 454 -222 321
-730 597 -1095 595 -55 0 -125 -7 -155 -15z"/>
<path d="M2800 1830 c-155 -162 -170 -181 -158 -198 7 -10 291 -311 632 -670
453 -477 626 -653 646 -657 68 -15 170 33 266 127 99 95 155 207 139 278 -4
20 -179 192 -647 636 -352 335 -655 621 -673 636 l-33 28 -172 -180z"/>
</g>
</svg>
