<?xml version="1.0" encoding="UTF-8"?>
<svg version="1.1" xmlns="http://www.w3.org/2000/svg" width="200" height="200">
<path d="M0 0 C66 0 132 0 200 0 C200 66 200 132 200 200 C134 200 68 200 0 200 C0 134 0 68 0 0 Z " fill="#03C75A" transform="translate(0,0)"/>
<path d="M0 0 C25 0 25 0 30.51953125 4.43359375 C32.27929688 7.31811523 32.27929688 7.31811523 33.8125 10.4375 C35.04683818 12.54245237 36.28252973 14.64661168 37.51953125 16.75 C38.38312256 18.3278125 38.38312256 18.3278125 39.26416016 19.9375 C41.85547852 24.50929993 44.90679774 28.69754333 48 32.9375 C50.475 36.4334375 50.475 36.4334375 53 40 C53.33 26.8 53.66 13.6 54 0 C62.58 0 71.16 0 80 0 C80 26.4 80 52.8 80 80 C55 80 55 80 49.48046875 75.56640625 C47.72070312 72.68188477 47.72070312 72.68188477 46.1875 69.5625 C44.95316182 67.45754763 43.71747027 65.35338832 42.48046875 63.25 C41.90474121 62.198125 41.32901367 61.14625 40.73583984 60.0625 C38.14452148 55.49070007 35.09320226 51.30245667 32 47.0625 C30.35 44.731875 28.7 42.40125 27 40 C26.67 53.2 26.34 66.4 26 80 C17.42 80 8.84 80 0 80 C0 53.6 0 27.2 0 0 Z " fill="#FCFEFD" transform="translate(60,60)"/>
<path d="M0 0 C0.33 0 0.66 0 1 0 C1 4.62 1 9.24 1 14 C-3.62 14 -8.24 14 -13 14 C-12.01 13.34 -11.02 12.68 -10 12 C-9.319375 11.46375 -8.63875 10.9275 -7.9375 10.375 C-6 9 -6 9 -4 9 C-2.47700477 6.06279492 -1.19899698 3.0831351 0 0 Z " fill="#ffffff" transform="translate(199,186)"/>
<path d="M0 0 C0.99 1.485 0.99 1.485 2 3 C2.53625 3.680625 3.0725 4.36125 3.625 5.0625 C5 7 5 7 5 9 C7.93720508 10.52299523 10.9168649 11.80100302 14 13 C14 13.33 14 13.66 14 14 C9.38 14 4.76 14 0 14 C0 9.38 0 4.76 0 0 Z " fill="#ffffff" transform="translate(0,186)"/>
<path d="M0 0 C4.62 0 9.24 0 14 0 C14 4.62 14 9.24 14 14 C13.34 13.01 12.68 12.02 12 11 C11.46375 10.319375 10.9275 9.63875 10.375 8.9375 C9 7 9 7 9 5 C6.06279492 3.47700477 3.0831351 2.19899698 0 1 C0 0.67 0 0.34 0 0 Z " fill="#ffffff" transform="translate(186,0)"/>
<path d="M0 0 C4.62 0 9.24 0 14 0 C13.01 0.66 12.02 1.32 11 2 C10.319375 2.53625 9.63875 3.0725 8.9375 3.625 C7 5 7 5 5 5 C3.47700477 7.93720508 2.19899698 10.9168649 1 14 C0.67 14 0.34 14 0 14 C0 9.38 0 4.76 0 0 Z " fill="#ffffff" transform="translate(0,0)"/>
</svg>
