<svg xmlns="http://www.w3.org/2000/svg" width="15" height="16" viewBox="0 0 15 16" fill="none">
  <g clip-path="url(#clip0_246_4444)">
    <mask id="mask0_246_4444" style="mask-type:luminance" maskUnits="userSpaceOnUse" x="0" y="0" width="15" height="16">
      <path d="M0.842285 0H14.737V16H0.842285V0Z" fill="white"/>
    </mask>
    <g mask="url(#mask0_246_4444)">
      <path d="M5.87308 7.822C6.42959 8.28923 7.10096 8.54003 7.78968 8.538C9.53955 8.538 11.0636 6.794 11.0636 4.769C11.0636 2.691 9.59426 1 7.78968 1C6.92174 1.00106 6.08962 1.39863 5.47597 2.10544C4.86233 2.81225 4.51729 3.77055 4.5166 4.77C4.5166 6.024 5.04981 7.138 5.87308 7.822Z" fill="#AAB4C6"/>
      <path d="M10.6704 8.29592C9.89247 9.14443 8.86143 9.6169 7.78989 9.61592C6.67657 9.61592 5.66225 9.11392 4.90933 8.29592C3.94312 8.89585 3.13576 9.78545 2.57271 10.8706C2.00967 11.9557 1.71191 13.1959 1.71094 14.4599C1.71117 14.6026 1.76044 14.7394 1.84798 14.8404C1.93553 14.9414 2.05423 14.9984 2.17815 14.9989H13.4008C13.5248 14.9987 13.6438 14.9418 13.7315 14.8408C13.8192 14.7397 13.8686 14.6028 13.8688 14.4599C13.868 13.1957 13.5703 11.9553 13.0073 10.87C12.4442 9.78469 11.6368 8.89593 10.6704 8.29592Z" fill="#AAB4C6"/>
    </g>
  </g>
  <defs>
    <clipPath id="clip0_246_4444">
      <rect width="13.8947" height="16" fill="white" transform="translate(0.842285)"/>
    </clipPath>
  </defs>
</svg>